<svg width="175" height="175" viewBox="0 0 175 175" fill="none" xmlns="http://www.w3.org/2000/svg">
<path d="M13.5559 66.3473C3.58496 76.9194 -0.383668 88.1995 1.00782 98.6728C1.59242 102.131 2.37461 106.758 3.32149 110.134C3.88961 112.151 4.72945 114.827 5.42931 116.803C6.0386 118.516 6.96078 120.764 7.68534 122.427C8.2864 123.785 9.1427 125.58 9.82609 126.906C10.5424 128.298 11.5222 130.142 12.3456 131.476C13.0784 132.653 14.017 134.267 14.8157 135.403C15.6061 136.523 16.6271 138.038 17.4422 139.133C18.2656 140.228 19.3772 141.685 20.2746 142.731C21.1392 143.744 22.2672 145.119 23.1894 146.074C25.0008 147.951 27.4297 150.438 29.3811 152.175C33.992 156.276 37.623 158.721 39.9614 160.252C41.1388 161.026 42.7444 161.998 43.9712 162.698C45.2227 163.414 46.9271 164.295 48.1951 164.97C49.496 165.67 51.3156 166.436 52.6577 167.053C54.1562 167.737 56.2147 168.511 57.7626 169.071C59.2858 169.614 61.3443 170.24 62.8757 170.734C64.6789 171.318 67.149 171.887 69.0016 172.29C70.673 172.652 72.9208 173.072 74.617 173.311C76.98 173.64 81.3768 174.266 87.7991 174.25C90.3433 174.25 93.7273 174.027 96.2551 173.797C98.1324 173.632 100.611 173.212 102.472 172.932C105.427 172.496 109.281 171.426 112.163 170.643C115.456 169.746 119.729 168.116 122.833 166.683C126.489 164.995 131.182 162.385 134.608 160.277C137.901 158.243 141.911 154.95 144.883 152.472C146.719 150.94 149.008 148.684 150.622 146.914L150.597 146.889C153.389 143.826 157.044 139.627 159.251 136.12C161.384 132.727 164.035 128.092 165.887 124.543C166.826 122.756 167.839 120.261 168.53 118.376C170.704 112.481 172.054 108.076 173.314 100.114C174.22 94.3912 174.417 87.0221 174.137 82.9876C173.989 80.8303 173.816 77.9568 173.479 75.8243C172.927 72.3579 172.071 67.7553 171.165 64.363C170.622 62.3375 169.815 59.6533 169.057 57.6937C168.489 56.2199 167.748 54.252 167.122 52.8029C166.431 51.2138 165.443 49.1224 164.661 47.5827C160.848 40.0983 153.784 29.1558 141.779 19.4812C140.75 18.6496 139.342 17.571 138.263 16.7888C137.16 15.9984 135.653 15.0021 134.533 14.2363C133.373 13.4459 131.75 12.4826 130.524 11.7909C127.979 10.3665 124.48 8.66215 121.837 7.44356C120.339 6.75193 118.264 6.01912 116.732 5.4263C115.086 4.78407 109.931 3.1291 105.493 2.20693C103.427 1.77878 100.66 1.293 98.5687 1.00482C96.815 0.76604 94.4519 0.584889 92.6899 0.428449C90.2198 0.197906 86.9016 0.239089 84.4233 0.288491C82.5707 0.321426 80.1006 0.560202 78.248 0.700175C75.325 0.922484 71.4552 1.61412 68.5899 2.24811C64.7859 3.08795 59.8128 4.60293 56.1653 5.96148C52.9212 7.17183 48.7056 9.0903 45.692 10.7864C42.3492 12.6719 37.9853 15.3644 34.9471 17.7027C32.4687 19.6212 28.7142 22.5112 23.8892 27.6078C21.0404 30.6131 17.574 34.9523 15.2356 38.3775C12.9714 41.6874 10.4107 46.3889 8.59928 49.954C6.89491 53.3051 5.14937 58.0478 4.05429 61.6459C2.9098 65.3922 1.77355 70.5136 1.1725 74.3834C0.670241 77.6192 0.283258 81.983 0.258556 85.2518C0.233855 88.9323 0.209157 92.4069 1.00782 98.6728M13.5559 66.3473C38.5616 39.8102 91.9571 27.5996 132.59 39.135C91.9653 27.6079 38.5616 39.8102 13.5559 66.3473C3.59319 76.9194 -0.383668 88.1995 1.00782 98.6728" stroke="white" stroke-width="0.5" stroke-miterlimit="10"/>
<path d="M132.613 39.1348C91.9878 27.6077 38.5841 39.81 13.5784 66.3471C18.6833 104.683 55.809 145.119 96.5081 156.671C121.514 130.133 137.709 77.405 132.613 39.1348Z" stroke="white" stroke-width="0.5" stroke-miterlimit="10"/>
<path d="M89.2557 35.1657C91.8328 54.4983 110.556 74.8932 131.075 80.7144" stroke="white" stroke-width="0.5" stroke-miterlimit="10"/>
<path d="M46.5291 44.9386C50.9341 78.0297 82.9878 112.941 118.121 122.912" stroke="white" stroke-width="0.5" stroke-miterlimit="10"/>
<path d="M132.614 39.135C100.108 48.4967 53.3155 77.7015 28.3098 104.239" stroke="white" stroke-width="0.5" stroke-miterlimit="10"/>
<path d="M132.612 39.135C116.507 66.3638 83.062 110.101 58.0563 136.638" stroke="white" stroke-width="0.5" stroke-miterlimit="10"/>
<path d="M132.613 39.1353C137.71 77.4054 121.514 130.134 96.5085 156.671C137.199 168.223 166.05 146.502 160.945 108.175C185.951 81.6375 173.238 50.6707 132.613 39.1353Z" stroke="white" stroke-width="0.5" stroke-miterlimit="10"/>
<path d="M131.074 80.7219C151.601 86.5432 166.15 75.5924 163.573 56.2597" stroke="white" stroke-width="0.5" stroke-miterlimit="10"/>
<path d="M118.114 122.911C153.248 132.882 178.146 114.134 173.741 81.0429" stroke="white" stroke-width="0.5" stroke-miterlimit="10"/>
<path d="M132.614 39.1348C157.521 77.9977 157.439 131.212 132.433 157.749" stroke="white" stroke-width="0.5" stroke-miterlimit="10"/>
<path d="M132.614 39.1348C170.267 68.4055 180.559 113.814 155.553 140.351" stroke="white" stroke-width="0.5" stroke-miterlimit="10"/>
<path d="M132.616 39.1343C173.24 50.6614 185.953 81.6365 160.948 108.174C155.843 69.8376 118.717 29.402 78.0179 17.8501C103.024 -8.68702 127.519 0.864089 132.616 39.1343Z" stroke="white" stroke-width="0.5" stroke-miterlimit="10"/>
<path d="M163.574 56.2606C160.997 36.9279 142.273 16.5331 121.755 10.7119" stroke="white" stroke-width="0.5" stroke-miterlimit="10"/>
<path d="M173.742 81.0433C169.337 47.9521 137.283 13.0413 102.15 3.07033" stroke="white" stroke-width="0.5" stroke-miterlimit="10"/>
<path d="M132.614 39.1342C165.12 29.7725 171.222 43.745 146.224 70.2821" stroke="white" stroke-width="0.5" stroke-miterlimit="10"/>
<path d="M132.615 39.1344C148.72 11.9056 141.475 11.3457 116.469 37.8829" stroke="white" stroke-width="0.5" stroke-miterlimit="10"/>
<path d="M132.614 39.1338C127.517 0.863584 103.022 -8.68752 78.0163 17.8497C37.3255 6.29779 8.47468 28.0183 13.5796 66.3461C38.5852 39.8089 91.9807 27.5984 132.614 39.1338Z" stroke="white" stroke-width="0.5" stroke-miterlimit="10"/>
<path d="M121.754 10.7117C101.228 4.89046 86.6787 15.8412 89.2559 35.1739" stroke="white" stroke-width="0.5" stroke-miterlimit="10"/>
<path d="M102.158 3.07025C67.0244 -6.90074 42.1257 11.8474 46.5307 44.9385" stroke="white" stroke-width="0.5" stroke-miterlimit="10"/>
<path d="M132.614 39.1341C107.707 0.271129 67.0988 -9.76575 42.0931 16.7714" stroke="white" stroke-width="0.5" stroke-miterlimit="10"/>
<path d="M132.614 39.1334C94.9617 9.86269 43.9787 7.63134 18.973 34.1685" stroke="white" stroke-width="0.5" stroke-miterlimit="10"/>
<path d="M13.5794 66.347C-11.4263 92.8842 1.2865 123.851 41.9115 135.386C47.0081 173.657 71.5033 183.208 96.509 156.671C55.8182 145.119 18.6843 104.683 13.5794 66.347Z" stroke="white" stroke-width="0.5" stroke-miterlimit="10"/>
<path d="M0.783813 93.4772C5.18884 126.568 37.2426 161.479 72.3757 171.45" stroke="white" stroke-width="0.5" stroke-miterlimit="10"/>
<path d="M28.3098 104.239C3.30413 130.776 9.40529 144.749 41.9201 135.387" stroke="white" stroke-width="0.5" stroke-miterlimit="10"/>
<path d="M58.0585 136.638C33.0528 163.175 25.8072 162.607 41.9123 135.387" stroke="white" stroke-width="0.5" stroke-miterlimit="10"/>
<path d="M96.5104 156.671C71.5047 183.208 47.0095 173.657 41.9128 135.386C82.5378 146.914 135.941 134.711 160.947 108.174C166.052 146.51 137.201 168.222 96.5104 156.671Z" stroke="white" stroke-width="0.5" stroke-miterlimit="10"/>
<path d="M72.3765 171.45C107.51 181.421 132.408 162.673 128.003 129.581" stroke="white" stroke-width="0.5" stroke-miterlimit="10"/>
<path d="M132.434 157.748C107.428 184.286 66.8197 174.249 41.9128 135.386" stroke="white" stroke-width="0.5" stroke-miterlimit="10"/>
<path d="M155.554 140.351C130.548 166.888 79.5737 164.657 41.9128 135.386" stroke="white" stroke-width="0.5" stroke-miterlimit="10"/>
<path d="M160.946 108.174C135.94 134.711 82.545 146.921 41.9117 135.386C36.8151 97.116 53.0107 44.3875 78.0164 17.8504C118.707 29.4022 155.841 69.8378 160.946 108.174Z" stroke="white" stroke-width="0.5" stroke-miterlimit="10"/>
<path d="M128.003 129.581C123.598 96.4899 91.5442 61.5791 56.411 51.6081" stroke="white" stroke-width="0.5" stroke-miterlimit="10"/>
<path d="M146.225 70.2823C121.219 96.8195 74.4269 126.024 41.9203 135.386" stroke="white" stroke-width="0.5" stroke-miterlimit="10"/>
<path d="M116.469 37.8823C91.4629 64.4195 58.0177 108.157 41.9127 135.386" stroke="white" stroke-width="0.5" stroke-miterlimit="10"/>
<path d="M78.0173 17.85C53.0116 44.3871 36.816 97.1156 41.9127 135.386C1.28766 123.859 -11.4252 92.8835 13.5805 66.3464C8.47567 28.0104 37.3265 6.29814 78.0173 17.85Z" stroke="white" stroke-width="0.5" stroke-miterlimit="10"/>
<path d="M56.4129 51.6078C21.2797 41.6369 -3.61891 60.385 0.786109 93.4761" stroke="white" stroke-width="0.5" stroke-miterlimit="10"/>
<path d="M42.0933 16.771C17.0876 43.3082 17.0052 96.5143 41.9121 135.385" stroke="white" stroke-width="0.5" stroke-miterlimit="10"/>
<path d="M18.9815 34.1688C-6.02423 60.706 4.26787 106.106 41.9205 135.385" stroke="white" stroke-width="0.5" stroke-miterlimit="10"/>
<path d="M13.5559 66.3473C3.58496 76.9194 -0.383668 88.1995 1.00782 98.6728C1.59242 102.131 2.37461 106.758 3.32149 110.134C3.88961 112.151 4.72945 114.827 5.42931 116.803C6.0386 118.516 6.96078 120.764 7.68534 122.427C8.2864 123.785 9.1427 125.58 9.82609 126.906C10.5424 128.298 11.5222 130.142 12.3456 131.476C13.0784 132.653 14.017 134.267 14.8157 135.403C15.6061 136.523 16.6271 138.038 17.4422 139.133C18.2656 140.228 19.3772 141.685 20.2746 142.731C21.1392 143.744 22.2672 145.119 23.1894 146.074C25.0008 147.951 27.4297 150.438 29.3811 152.175C33.992 156.276 37.623 158.721 39.9614 160.252C41.1388 161.026 42.7444 161.998 43.9712 162.698C45.2227 163.414 46.9271 164.295 48.1951 164.97C49.496 165.67 51.3156 166.436 52.6577 167.053C54.1562 167.737 56.2147 168.511 57.7626 169.071C59.2858 169.614 61.3443 170.24 62.8757 170.734C64.6789 171.318 67.149 171.887 69.0016 172.29C70.673 172.652 72.9208 173.072 74.617 173.311C76.98 173.64 81.3768 174.266 87.7991 174.25C90.3433 174.25 93.7273 174.027 96.2551 173.797C98.1324 173.632 100.611 173.212 102.472 172.932C105.427 172.496 109.281 171.426 112.163 170.643C115.456 169.746 119.729 168.116 122.833 166.683C126.489 164.995 131.182 162.385 134.608 160.277C137.901 158.243 141.911 154.95 144.883 152.472C146.719 150.94 149.008 148.684 150.622 146.914L150.597 146.889C153.389 143.826 157.044 139.627 159.251 136.12C161.384 132.727 164.035 128.092 165.887 124.543C166.826 122.756 167.839 120.261 168.53 118.376C170.704 112.481 172.054 108.076 173.314 100.114C174.22 94.3912 174.417 87.0221 174.137 82.9876C173.989 80.8303 173.816 77.9568 173.479 75.8243C172.927 72.3579 172.071 67.7553 171.165 64.363C170.622 62.3375 169.815 59.6533 169.057 57.6937C168.489 56.2199 167.748 54.252 167.122 52.8029C166.431 51.2138 165.443 49.1224 164.661 47.5827C160.848 40.0983 153.784 29.1558 141.779 19.4812C140.75 18.6496 139.342 17.571 138.263 16.7888C137.16 15.9984 135.653 15.0021 134.533 14.2363C133.373 13.4459 131.75 12.4826 130.524 11.7909C127.979 10.3665 124.48 8.66215 121.837 7.44356C120.339 6.75193 118.264 6.01912 116.732 5.4263C115.086 4.78407 109.931 3.1291 105.493 2.20693C103.427 1.77878 100.66 1.293 98.5687 1.00482C96.815 0.76604 94.4519 0.584889 92.6899 0.428449C90.2198 0.197906 86.9016 0.239089 84.4233 0.288491C82.5707 0.321426 80.1006 0.560202 78.248 0.700175C75.325 0.922484 71.4552 1.61412 68.5899 2.24811C64.7859 3.08795 59.8128 4.60293 56.1653 5.96148C52.9212 7.17183 48.7056 9.0903 45.692 10.7864C42.3492 12.6719 37.9853 15.3644 34.9471 17.7027C32.4687 19.6212 28.7142 22.5112 23.8892 27.6078C21.0404 30.6131 17.574 34.9523 15.2356 38.3775C12.9714 41.6874 10.4107 46.3889 8.59928 49.954C6.89491 53.3051 5.14937 58.0478 4.05429 61.6459C2.9098 65.3922 1.77355 70.5136 1.1725 74.3834C0.670241 77.6192 0.283258 81.983 0.258556 85.2518C0.233855 88.9323 0.209157 92.4069 1.00782 98.6728M13.5559 66.3473C38.5616 39.8102 91.9571 27.5996 132.59 39.135C91.9653 27.6079 38.5616 39.8102 13.5559 66.3473C3.59319 76.9194 -0.383668 88.1995 1.00782 98.6728" stroke="white" stroke-width="0.5" stroke-miterlimit="10"/>
<path d="M1.04101 98.6727C1.36212 100.92 1.81498 103.926 2.36663 106.132C2.77832 107.796 3.29704 110.019 3.78283 111.665C4.30978 113.46 5.13316 115.815 5.74245 117.585C6.29411 119.175 7.14218 121.258 7.86674 122.781C9.1265 125.432 10.9214 128.915 12.3623 131.476C14.2149 134.769 18.0765 140.179 20.3078 142.764C23.7248 146.708 23.9307 146.939 26.2196 149.203C27.5617 150.52 29.6942 152.562 32.7407 155.016C33.7946 155.864 35.2273 156.959 36.3224 157.749C37.4174 158.54 38.9324 159.536 40.0522 160.302C41.1967 161.084 42.8023 161.99 43.9879 162.698C45.7417 163.752 49.8585 165.901 53.5225 167.416C54.9716 168.017 56.9148 168.782 58.3969 169.293C60.2906 169.943 62.8431 170.767 64.7862 171.269C66.433 171.689 68.6231 172.241 70.2946 172.554C72.6329 172.99 75.7617 173.533 78.133 173.756C79.9115 173.92 82.2828 174.151 84.0613 174.184C86.8937 174.241 90.6729 174.192 93.4971 174.036C97.2516 173.83 102.217 172.965 105.913 172.249C109.232 171.607 113.563 170.306 116.733 169.137C120.257 167.844 124.892 165.909 128.161 164.073C132.492 161.644 135.357 160.03 140.396 156.177C143.681 153.657 147.749 149.886 150.622 146.906C153.447 143.974 156.822 139.693 159.136 136.342C161.318 133.188 163.805 128.701 165.558 125.292C167.394 121.727 169.231 116.68 170.457 112.868C171.478 109.665 172.508 105.284 173.043 101.966C173.866 96.8201 174.171 93.3866 174.261 88.2324C174.327 84.5107 173.94 79.5376 173.496 75.8407C173.224 73.5846 172.722 70.5876 172.17 68.381C171.758 66.7178 171.24 64.4947 170.754 62.848C170.227 61.053 169.403 58.6982 168.794 56.9279C168.242 55.3388 167.394 53.2557 166.67 51.7325C165.41 49.0812 163.615 45.5984 162.174 43.0377C160.322 39.7525 156.468 34.3347 154.229 31.7493C150.812 27.8054 150.606 27.5749 148.317 25.3106C146.975 23.9932 144.842 21.9513 141.796 19.4976C140.742 18.6495 139.309 17.5545 138.214 16.764C137.119 15.9736 135.604 14.9773 134.484 14.2116C133.34 13.4294 131.734 12.5237 130.549 11.8156C128.795 10.7617 124.678 8.6127 121.014 7.0977C119.565 6.49664 117.622 5.73091 116.14 5.22042C114.246 4.56996 111.694 3.7466 109.75 3.24434C108.104 2.82442 105.913 2.27277 104.242 1.95989C101.904 1.52351 98.7749 0.980089 96.4036 0.75778C94.6251 0.593106 92.2538 0.362547 90.4753 0.329613C87.6429 0.271977 83.8637 0.321373 81.0395 0.477813C77.2849 0.683655 72.32 1.5482 68.6231 2.26453C65.3049 2.90676 60.974 4.20768 57.804 5.37686C54.28 6.66955 49.6445 8.60446 46.3757 10.4406C42.0448 12.8695 39.1795 14.4833 34.1404 18.3367C30.8552 20.8562 26.7877 24.6272 23.9142 27.6078C21.09 30.539 17.7142 34.8205 15.4006 38.1716C13.2186 41.3251 10.7321 45.8125 8.97828 49.2212C7.14217 52.7864 5.30606 57.8336 4.07924 61.6458C3.05826 64.8487 2.02905 69.229 1.49386 72.5472C0.670495 77.7015 0.365852 81.1432 0.275282 86.281C0.209412 90.0026 0.678727 94.9675 1.04101 98.6727ZM1.04101 98.6727C3.14883 114.481 17.4837 128.446 41.9213 135.378C17.4837 128.446 3.14883 114.473 1.04101 98.6727Z" stroke="white" stroke-width="0.5" stroke-miterlimit="10"/>
<path d="M132.613 39.1348C91.9878 27.6077 38.5841 39.81 13.5784 66.3471C18.6833 104.683 55.809 145.119 96.5081 156.671C121.514 130.133 137.709 77.405 132.613 39.1348Z" stroke="white" stroke-width="0.5" stroke-miterlimit="10"/>
<path d="M46.5291 44.9386C50.9341 78.0297 82.9878 112.941 118.121 122.912" stroke="white" stroke-width="0.5" stroke-miterlimit="10"/>
<path d="M132.614 39.135C100.108 48.4967 53.3155 77.7015 28.3098 104.239" stroke="white" stroke-width="0.5" stroke-miterlimit="10"/>
<path d="M132.612 39.135C116.507 66.3638 83.062 110.101 58.0563 136.638" stroke="white" stroke-width="0.5" stroke-miterlimit="10"/>
<path d="M132.613 39.1353C137.71 77.4054 121.514 130.134 96.5085 156.671C137.199 168.223 166.05 146.502 160.945 108.175C185.951 81.6375 173.238 50.6707 132.613 39.1353Z" stroke="white" stroke-width="0.5" stroke-miterlimit="10"/>
<path d="M118.114 122.911C153.248 132.882 178.146 114.134 173.741 81.0429" stroke="white" stroke-width="0.5" stroke-miterlimit="10"/>
<path d="M132.614 39.1348C157.521 77.9977 157.439 131.212 132.433 157.749" stroke="white" stroke-width="0.5" stroke-miterlimit="10"/>
<path d="M132.614 39.1348C170.267 68.4055 180.559 113.814 155.553 140.351" stroke="white" stroke-width="0.5" stroke-miterlimit="10"/>
<path d="M132.616 39.1343C173.24 50.6614 185.953 81.6365 160.948 108.174C155.843 69.8376 118.717 29.402 78.0179 17.8501C103.024 -8.68702 127.519 0.864089 132.616 39.1343Z" stroke="white" stroke-width="0.5" stroke-miterlimit="10"/>
<path d="M173.742 81.0433C169.337 47.9521 137.283 13.0413 102.15 3.07033" stroke="white" stroke-width="0.5" stroke-miterlimit="10"/>
<path d="M132.614 39.1342C165.12 29.7725 171.222 43.745 146.224 70.2821" stroke="white" stroke-width="0.5" stroke-miterlimit="10"/>
<path d="M132.615 39.1344C148.72 11.9056 141.475 11.3457 116.469 37.8829" stroke="white" stroke-width="0.5" stroke-miterlimit="10"/>
<path d="M132.614 39.1338C127.517 0.863584 103.022 -8.68752 78.0163 17.8497C37.3255 6.29779 8.47468 28.0183 13.5796 66.3461C38.5852 39.8089 91.9807 27.5984 132.614 39.1338Z" stroke="white" stroke-width="0.5" stroke-miterlimit="10"/>
<path d="M102.158 3.07025C67.0244 -6.90074 42.1257 11.8474 46.5307 44.9385" stroke="white" stroke-width="0.5" stroke-miterlimit="10"/>
<path d="M132.614 39.1341C107.707 0.271129 67.0988 -9.76575 42.0931 16.7714" stroke="white" stroke-width="0.5" stroke-miterlimit="10"/>
<path d="M132.614 39.1334C94.9617 9.86269 43.9787 7.63134 18.973 34.1685" stroke="white" stroke-width="0.5" stroke-miterlimit="10"/>
<path d="M13.5794 66.347C-11.4263 92.8842 1.2865 123.851 41.9115 135.386C47.0081 173.657 71.5033 183.208 96.509 156.671C55.8182 145.119 18.6843 104.683 13.5794 66.347Z" stroke="white" stroke-width="0.5" stroke-miterlimit="10"/>
<path d="M0.783813 93.4772C5.18884 126.568 37.2426 161.479 72.3757 171.45" stroke="white" stroke-width="0.5" stroke-miterlimit="10"/>
<path d="M10.9534 118.261C13.5305 137.593 32.2539 157.988 52.7723 163.809" stroke="white" stroke-width="0.5" stroke-miterlimit="10"/>
<path d="M28.3098 104.239C3.30413 130.776 9.40529 144.749 41.9201 135.387" stroke="white" stroke-width="0.5" stroke-miterlimit="10"/>
<path d="M58.0585 136.638C33.0528 163.175 25.8072 162.607 41.9123 135.387" stroke="white" stroke-width="0.5" stroke-miterlimit="10"/>
<path d="M96.5104 156.671C71.5047 183.208 47.0095 173.657 41.9128 135.386C82.5378 146.914 135.941 134.711 160.947 108.174C166.052 146.51 137.201 168.222 96.5104 156.671Z" stroke="white" stroke-width="0.5" stroke-miterlimit="10"/>
<path d="M72.3765 171.45C107.51 181.421 132.408 162.673 128.003 129.581" stroke="white" stroke-width="0.5" stroke-miterlimit="10"/>
<path d="M52.7814 163.809C73.3079 169.63 87.8569 158.679 85.2797 139.347" stroke="white" stroke-width="0.5" stroke-miterlimit="10"/>
<path d="M132.434 157.748C107.428 184.286 66.8197 174.249 41.9128 135.386" stroke="white" stroke-width="0.5" stroke-miterlimit="10"/>
<path d="M155.554 140.351C130.548 166.888 79.5737 164.657 41.9128 135.386" stroke="white" stroke-width="0.5" stroke-miterlimit="10"/>
<path d="M160.946 108.174C135.94 134.711 82.545 146.921 41.9117 135.386C36.8151 97.116 53.0107 44.3875 78.0164 17.8504C118.707 29.4022 155.841 69.8378 160.946 108.174Z" stroke="white" stroke-width="0.5" stroke-miterlimit="10"/>
<path d="M128.003 129.581C123.598 96.4899 91.5442 61.5791 56.411 51.6081" stroke="white" stroke-width="0.5" stroke-miterlimit="10"/>
<path d="M85.2797 139.346C82.7025 120.013 63.9791 99.6185 43.4608 93.7973" stroke="white" stroke-width="0.5" stroke-miterlimit="10"/>
<path d="M146.225 70.2823C121.219 96.8195 74.4269 126.024 41.9203 135.386" stroke="white" stroke-width="0.5" stroke-miterlimit="10"/>
<path d="M116.469 37.8823C91.4629 64.4195 58.0177 108.157 41.9127 135.386" stroke="white" stroke-width="0.5" stroke-miterlimit="10"/>
<path d="M78.0173 17.85C53.0116 44.3871 36.816 97.1156 41.9127 135.386C1.28766 123.859 -11.4252 92.8835 13.5805 66.3464C8.47567 28.0104 37.3265 6.29814 78.0173 17.85Z" stroke="white" stroke-width="0.5" stroke-miterlimit="10"/>
<path d="M56.4129 51.6078C21.2797 41.6369 -3.61891 60.385 0.786109 93.4761" stroke="white" stroke-width="0.5" stroke-miterlimit="10"/>
<path d="M43.4539 93.7975C22.9274 87.9763 8.37844 98.9271 10.9556 118.26" stroke="white" stroke-width="0.5" stroke-miterlimit="10"/>
<path d="M42.0933 16.771C17.0876 43.3082 17.0052 96.5143 41.9121 135.385" stroke="white" stroke-width="0.5" stroke-miterlimit="10"/>
<path d="M18.9815 34.1688C-6.02423 60.706 4.26787 106.106 41.9205 135.385" stroke="white" stroke-width="0.5" stroke-miterlimit="10"/>
<path d="M128.26 129.845C123.822 96.5402 91.5711 61.4154 56.2239 51.3785" stroke="white" stroke-width="0.5" stroke-miterlimit="10"/>
<path d="M41.6329 135.692C57.8368 108.29 91.4961 64.2728 116.658 37.5709" stroke="white" stroke-width="0.5" stroke-miterlimit="10"/>
<path d="M46.2775 44.6679C50.7154 77.9731 82.9668 113.098 118.314 123.135" stroke="white" stroke-width="0.5" stroke-miterlimit="10"/>
<path d="M57.8787 136.951C83.0408 110.249 116.7 66.2319 132.904 38.8302" stroke="white" stroke-width="0.5" stroke-miterlimit="10"/>
<path d="M116.657 37.5704C141.82 10.8686 149.106 11.4367 132.902 38.8301" stroke="white" stroke-width="0.5" stroke-miterlimit="10"/>
<path d="M128.26 129.845C123.822 96.5402 91.5711 61.4154 56.2239 51.3785" stroke="white" stroke-width="0.5" stroke-miterlimit="10"/>
<path d="M41.6329 135.692C57.8368 108.29 91.4961 64.2728 116.658 37.5709" stroke="white" stroke-width="0.5" stroke-miterlimit="10"/>
<path d="M57.8785 136.951C83.0406 110.249 116.7 66.2321 132.904 38.8304" stroke="white" stroke-width="0.5" stroke-miterlimit="10"/>
<path d="M116.657 37.5704C141.82 10.8686 149.106 11.4367 132.902 38.8301" stroke="white" stroke-width="0.5" stroke-miterlimit="10"/>
</svg>