<svg width="233" height="220" viewBox="0 0 233 220" fill="none" xmlns="http://www.w3.org/2000/svg">
<path d="M154.681 150.592C154.826 150.552 154.979 150.511 155.136 150.448L154.978 149.975L154.303 150.16L154.44 150.658L154.681 150.592ZM203.708 94.1347L203.714 94.1424L203.877 94.4086L203.884 94.4198C204.423 95.2985 204.93 96.16 205.37 96.9338C206.335 98.6275 207.566 100.914 208.405 102.664C209.449 104.839 210.795 107.768 211.64 110.022L211.64 110.023C212.281 111.722 213.13 113.988 213.647 115.717C214.364 118.14 215.259 121.377 215.757 123.832C216.31 126.558 217.269 131.66 217.327 138.173L217.326 138.172C217.334 139.549 217.33 141.315 217.228 142.773L217.178 143.377C216.934 145.823 216.501 148.975 216.07 151.585L215.887 152.666C215.402 155.451 214.255 159.092 213.207 161.727L213.207 161.728C212.733 162.92 212.111 164.443 211.536 165.683L211.294 166.195C210.564 167.704 209.577 169.7 208.673 171.096C208.656 171.119 208.641 171.142 208.631 171.157C208.618 171.177 208.61 171.187 208.604 171.195L208.595 171.207L208.588 171.219L208.25 171.767C207.563 172.861 206.826 173.93 206.039 174.977L205.64 175.5L205.636 175.506L204.942 176.461C204.251 177.408 203.568 178.32 202.94 179.123C202.492 179.697 201.853 180.278 201.207 180.901C200.584 181.501 199.958 182.14 199.565 182.813C197.426 184.827 194.465 187.385 192.17 189.22L192.17 189.22C190.983 190.163 189.265 191.254 187.966 192.086C186.252 193.179 183.997 194.376 181.943 195.416L179.984 196.394C178.537 197.104 176.527 197.856 175.012 198.466C173.849 198.933 172.453 199.393 171.035 199.825C170.184 200.085 169.324 200.339 168.452 200.578L166.995 200.977C165.323 201.443 163.049 201.908 161.337 202.237C160.064 202.48 158.557 202.709 157.059 202.918L157.051 202.919C156.923 202.941 156.796 202.96 156.668 202.977L156.284 203.017L156.271 203.019C155.288 203.148 154.327 203.262 153.475 203.355C151.613 203.558 149.116 203.69 147.24 203.782C144.947 203.884 141.883 203.846 139.589 203.78C137.592 203.723 134.934 203.538 132.943 203.355C131.262 203.197 129.158 202.942 127.268 202.679L125.472 202.417C123.297 202.081 120.407 201.583 118.28 201.072C115.694 200.445 112.585 199.618 109.605 198.782L109.57 198.772L109.534 198.773C109.177 198.777 108.856 198.689 108.569 198.501L108.537 198.48L108.499 198.469C106.996 198.047 105.543 197.619 104.24 197.221C102.06 196.556 99.2584 195.419 97.0943 194.63C94.9552 193.851 92.1784 192.612 90.0984 191.668C87.9852 190.712 85.2193 189.335 83.1481 188.293C81.0528 187.236 78.3237 185.701 76.2928 184.509C74.2423 183.306 71.5428 181.63 69.5603 180.321C67.5463 178.994 64.9074 177.152 62.9712 175.724L62.9706 175.726C61.017 174.28 58.4262 172.341 56.5986 170.75C55.0559 169.404 53.0421 167.708 51.4149 166.249L50.7438 165.64C49.219 164.233 47.2673 162.405 45.7331 160.803L45.1041 160.133C43.4478 158.32 41.1836 156.023 39.6595 154.137C37.0157 150.87 33.5894 146.442 31.2123 142.986C30.4269 141.844 29.5293 140.424 28.6929 139.037L28.6923 139.039C28.6859 139.028 28.6803 139.017 28.675 139.009C28.6694 139 28.6614 138.988 28.6573 138.981C28.6467 138.965 28.6415 138.955 28.6384 138.949L28.63 138.933C28.0791 138.012 27.5508 137.111 27.0846 136.308L27.0839 136.309C26.1148 134.628 24.8986 132.328 24.0511 130.578L24.0499 130.578C22.9921 128.413 21.7085 125.455 20.8142 123.216L20.814 123.215C20.1348 121.535 19.3262 119.258 18.8081 117.526L18.8076 117.524C18.5581 116.709 18.3059 115.789 18.0435 114.831L18.0424 114.827C17.5468 113.114 17.1239 111.407 16.7639 109.708L16.76 109.694C16.7493 109.655 16.7388 109.61 16.7272 109.559C16.7161 109.511 16.703 109.457 16.6891 109.406C16.3279 107.766 15.9704 105.565 15.7592 103.9C15.4238 101.269 15.2248 97.7275 15.1304 95.0731L15.1314 95.0728C15.0802 93.517 15.1829 91.4318 15.2815 89.8657C15.4605 87.0708 16.0746 83.362 16.5723 80.5866L16.5713 80.5869C16.8373 79.1337 17.4333 77.2587 17.8084 75.7878C18.3303 73.7556 19.316 71.3111 20.2629 69.1273L21.1786 67.0549C21.681 65.9339 22.4126 64.5886 23.1068 63.3707C23.113 63.3598 23.1243 63.3399 23.1307 63.3287C23.3672 62.9138 23.6006 62.5173 23.8165 62.1506C24.5636 60.8879 25.6483 59.2493 26.5013 58.0424C28.2159 55.6127 30.8015 52.5728 32.8937 50.4582L32.9002 50.4523L32.9046 50.4461C32.938 50.4077 32.98 50.3656 33.0299 50.3156L32.8656 50.152L32.8614 50.1369L33.0383 50.3133C35.102 48.2391 37.9404 45.6851 40.2957 44.0534C42.1999 42.733 44.7046 41.0994 46.829 39.8114L47.7139 39.2825C48.7443 38.6731 50.0866 37.9875 51.3127 37.4057L52.4849 36.8649C55.5041 35.5201 59.2019 33.92 65.4846 32.2692L65.4856 32.2689C67.6726 31.6874 70.6495 31.0905 72.887 30.6972L72.8873 30.6981C74.4708 30.4167 76.5288 30.1253 78.248 29.9527L78.2438 29.9558L78.9844 29.8947C80.9106 29.7364 83.3923 29.5533 85.4562 29.4646L86.3121 29.4326C88.2779 29.3763 90.909 29.4015 92.8761 29.4683C94.5086 29.5211 96.5537 29.6494 98.3909 29.7995L100.135 29.9545C102.207 30.1613 104.953 30.4615 106.989 30.8394L106.99 30.8392C109.173 31.2421 112.057 31.6655 114.188 32.1855C116.767 32.8141 119.876 33.6405 122.845 34.4707L122.882 34.482L122.921 34.4804C123.27 34.4691 123.601 34.5615 123.901 34.7567L123.933 34.7764L123.969 34.7867C124.717 34.9993 125.454 35.2113 126.166 35.4191L128.219 36.0303C130.396 36.6942 133.229 37.7852 135.359 38.6189C137.485 39.4516 140.301 40.6029 142.356 41.5817L142.357 41.5814C146.567 43.581 152.08 46.4824 156.161 48.7395L156.162 48.7393C157.725 49.5993 159.588 50.8123 161.282 51.9023L162.903 52.9336C164.941 54.205 167.546 56.096 169.486 57.5265C170.461 58.2473 171.577 59.1171 172.689 59.9947L175.869 62.5094C177.697 63.9428 179.996 66.0307 181.714 67.6105C183.452 69.2148 185.717 71.4231 187.359 73.1235C188.892 74.7141 190.882 76.8822 192.313 78.5516C193.835 80.3281 195.786 82.7704 197.226 84.6257C198.499 86.266 200.094 88.5323 201.243 90.2626C201.994 91.3996 202.873 92.7828 203.708 94.1347Z" stroke="white" stroke-width="0.5"/>
<path d="M69.9165 87.128C69.0893 87.9614 68.6809 88.6538 68.5324 88.9143C69.5252 87.2088 70.7488 85.6071 72.2076 84.1257C86.3907 69.7919 117.601 72.7294 141.919 90.6772C163.733 106.769 172.584 129.482 163.944 144.338C164.037 144.163 164.176 143.931 164.258 143.75C164.421 143.38 164.628 142.884 164.735 142.503C164.946 141.732 165.097 141.128 165.194 139.844C165.251 139.028 165.225 137.936 165.159 137.118C165.086 136.241 164.877 135.093 164.728 134.228C164.57 133.33 164.221 132.151 163.957 131.282C163.736 130.542 163.383 129.574 163.1 128.861C162.426 127.172 161.662 125.411 160.126 122.692C158.746 120.255 157.045 117.801 155.724 116.061C154.901 114.985 153.771 113.588 152.892 112.562C152.026 111.55 150.801 110.259 149.89 109.277C148.893 108.205 147.48 106.868 146.408 105.877C145.316 104.875 143.805 103.6 142.687 102.631C141.509 101.608 139.865 100.325 138.584 99.4362C137.3 98.5389 135.626 97.2737 134.29 96.4434C132.965 95.6191 131.221 94.4872 129.88 93.7023C128.558 92.921 126.776 91.9053 125.394 91.2283C124.034 90.5632 122.237 89.6567 120.861 89.0311C119.524 88.421 117.715 87.6589 116.355 87.1255C111.573 85.2426 107.609 84.1913 107.439 84.1498C106.16 83.8142 104.448 83.3771 103.15 83.0996C101.896 82.8272 100.21 82.5151 98.9401 82.309C97.771 82.119 96.2047 81.9236 95.0209 81.8081C93.8557 81.6963 92.3014 81.5768 91.14 81.5431C90.1207 81.5145 88.7703 81.4974 87.7563 81.5201C86.7259 81.5473 85.3444 81.6091 84.3141 81.733C83.2674 81.8613 81.8756 82.0139 80.8432 82.2263C79.5854 82.4829 77.9215 82.8947 76.6996 83.2822C75.6986 83.6092 74.0915 84.2605 73.0818 84.8449C72.5495 85.149 71.8573 85.5761 71.3652 85.9308C70.9035 86.2683 70.326 86.7607 69.9254 87.1607L69.9165 87.128Z" stroke="white" stroke-width="0.5" stroke-miterlimit="10"/>
<path d="M68.3663 172.082C75.0896 165.289 85.0436 152.052 90.5564 142.573C66.2379 124.626 58.0234 98.4582 72.2088 84.1326C66.6878 93.6134 52.8274 94.4196 41.3062 85.913C20.3916 107.042 32.5079 145.624 68.3603 172.093L68.3663 172.082Z" stroke="white" stroke-width="0.5" stroke-miterlimit="10"/>
<path d="M83.8488 152.926C57.9546 133.818 49.2042 105.95 64.3133 90.6942" stroke="white" stroke-width="0.5" stroke-miterlimit="10"/>
<path d="M41.3125 85.9035C52.8336 94.4102 66.6962 93.6121 72.215 84.1231C86.3981 69.7893 117.608 72.7269 141.927 90.6747C136.406 100.155 137.385 102.35 144.11 95.5647C108.25 69.0984 62.2271 64.7741 41.3125 85.9035Z" stroke="white" stroke-width="0.5" stroke-miterlimit="10"/>
<path d="M64.3048 90.6955C79.4117 75.4314 112.645 78.5624 138.539 97.6706" stroke="white" stroke-width="0.5" stroke-miterlimit="10"/>
<path d="M69.2853 73.1407C75.8421 83.913 85.661 84.9527 91.182 75.4719" stroke="white" stroke-width="0.5" stroke-miterlimit="10"/>
<path d="M106.162 76.6013C106.173 86.7567 110.676 87.3001 116.186 77.8133" stroke="white" stroke-width="0.5" stroke-miterlimit="10"/>
<path d="M144.111 95.5641C137.387 102.357 136.416 100.161 141.927 90.6741C166.245 108.622 174.46 134.789 160.274 149.115C154.753 158.596 159.641 173.229 171.162 181.736C192.077 160.606 179.961 122.024 144.108 95.556L144.111 95.5641Z" stroke="white" stroke-width="0.5" stroke-miterlimit="10"/>
<path d="M138.549 97.6692C164.443 116.777 173.193 144.645 158.084 159.901" stroke="white" stroke-width="0.5" stroke-miterlimit="10"/>
<path d="M171.709 124.972C160.091 126.545 155.125 120.104 160.646 110.623" stroke="white" stroke-width="0.5" stroke-miterlimit="10"/>
<path d="M181.409 155.886C168.066 151.968 161.704 141.072 167.223 131.583" stroke="white" stroke-width="0.5" stroke-miterlimit="10"/>
<path d="M90.5568 142.574C96.0778 133.093 95.0986 130.898 88.373 137.683C52.5124 111.217 40.4065 72.6414 61.3189 51.5038C72.8401 60.0104 77.7257 74.6356 72.2069 84.1246C58.0238 98.4584 66.236 124.618 90.5546 142.565L90.5568 142.574Z" stroke="white" stroke-width="0.5" stroke-miterlimit="10"/>
<path d="M72.2072 84.1239C77.7282 74.643 72.8403 60.0097 61.3191 51.5031C82.2338 30.3737 128.256 34.698 164.117 61.1643C157.394 67.9576 147.44 81.1946 141.919 90.6754C117.6 72.7276 86.3925 69.7982 72.2072 84.1239Z" stroke="white" stroke-width="0.5" stroke-miterlimit="10"/>
<path d="M91.183 75.4705C96.704 65.9897 95.8577 49.5105 89.3008 38.7382" stroke="white" stroke-width="0.5" stroke-miterlimit="10"/>
<path d="M116.197 77.8178C121.718 68.3369 126.19 52.3623 126.179 42.2068" stroke="white" stroke-width="0.5" stroke-miterlimit="10"/>
<path d="M141.926 90.6734C147.447 81.1926 157.399 67.9474 164.124 61.1622C199.985 87.6285 212.091 126.204 191.178 147.342C179.657 138.835 165.795 139.633 160.276 149.122C174.459 134.789 166.247 108.629 141.928 90.6816L141.926 90.6734Z" stroke="white" stroke-width="0.5" stroke-miterlimit="10"/>
<path d="M160.644 110.62C166.165 101.139 180.104 92.1409 191.722 90.5678" stroke="white" stroke-width="0.5" stroke-miterlimit="10"/>
<path d="M167.222 131.582C172.743 122.101 188.079 117.565 201.422 121.483" stroke="white" stroke-width="0.5" stroke-miterlimit="10"/>
<path d="M69.9165 87.128C69.0893 87.9614 68.6809 88.6538 68.5324 88.9143C69.5252 87.2088 70.7488 85.6071 72.2076 84.1257C86.3907 69.7919 117.601 72.7294 141.919 90.6772C163.733 106.769 172.584 129.482 163.944 144.338C164.037 144.163 164.176 143.931 164.258 143.75C164.421 143.38 164.628 142.884 164.735 142.503C164.946 141.732 165.097 141.128 165.194 139.844C165.251 139.028 165.225 137.936 165.159 137.118C165.086 136.241 164.877 135.093 164.728 134.228C164.57 133.33 164.221 132.151 163.957 131.282C163.736 130.542 163.383 129.574 163.1 128.861C162.426 127.172 161.662 125.411 160.126 122.692C158.746 120.255 157.045 117.801 155.724 116.061C154.901 114.985 153.771 113.588 152.892 112.562C152.026 111.55 150.801 110.259 149.89 109.277C148.893 108.205 147.48 106.868 146.408 105.877C145.316 104.875 143.805 103.6 142.687 102.631C141.509 101.608 139.865 100.325 138.584 99.4362C137.3 98.5389 135.626 97.2737 134.29 96.4434C132.965 95.6191 131.221 94.4872 129.88 93.7023C128.558 92.921 126.776 91.9053 125.394 91.2283C124.034 90.5632 122.237 89.6567 120.861 89.0311C119.524 88.421 117.715 87.6589 116.355 87.1255C111.573 85.2426 107.609 84.1913 107.439 84.1498C106.16 83.8142 104.448 83.3771 103.15 83.0996C101.896 82.8272 100.21 82.5151 98.9401 82.309C97.771 82.119 96.2047 81.9236 95.0209 81.8081C93.8557 81.6963 92.3014 81.5768 91.14 81.5431C90.1207 81.5145 88.7703 81.4974 87.7563 81.5201C86.7259 81.5473 85.3444 81.6091 84.3141 81.733C83.2674 81.8613 81.8756 82.0139 80.8432 82.2263C79.5854 82.4829 77.9215 82.8947 76.6996 83.2822C75.6986 83.6092 74.0915 84.2605 73.0818 84.8449C72.5495 85.149 71.8573 85.5761 71.3652 85.9308C70.9035 86.2683 70.326 86.7607 69.9254 87.1607L69.9165 87.128Z" stroke="white" stroke-width="0.5" stroke-miterlimit="10"/>
<path d="M68.5321 88.9145C63.011 98.3953 48.3728 100.215 35.8859 92.9668C37.3502 90.446 39.1577 88.0863 41.3129 85.904C62.2275 64.7746 108.25 69.0989 144.111 95.5652C176.268 119.299 189.328 152.785 176.592 174.682C164.105 167.434 158.441 153.822 163.96 144.333C164.148 143.991 164.37 143.517 164.518 143.16C164.605 142.961 164.681 142.693 164.748 142.49C164.904 141.999 165.054 141.325 165.108 140.817C165.21 139.84 165.241 138.755 165.202 137.564C165.176 136.858 165.058 135.914 164.927 135.212C164.705 134.015 164.315 132.433 163.96 131.264C163.666 130.288 163.171 129.026 162.796 128.073C162.423 127.129 161.842 125.907 161.383 125.004C160.94 124.122 160.293 122.98 159.812 122.127C158.82 120.367 157.032 117.725 155.469 115.709C154.678 114.685 153.59 113.347 152.743 112.374C151.869 111.365 150.642 110.065 149.725 109.094C148.755 108.058 147.38 106.763 146.334 105.801C145.242 104.798 143.723 103.526 142.605 102.557C141.44 101.548 139.813 100.296 138.566 99.4058C137.289 98.4981 135.608 97.2434 134.273 96.4131C132.947 95.5887 131.214 94.4628 129.873 93.6779C128.543 92.8989 126.767 91.8727 125.387 91.2039C124.026 90.5388 122.23 89.6324 120.854 89.0067C119.498 88.3929 117.668 87.6189 116.287 87.0736C113.341 85.9193 110.196 84.8723 107.252 84.078C105.979 83.732 104.263 83.3135 102.965 83.0359C101.656 82.7524 99.8974 82.4338 98.5758 82.2329C97.4091 82.0511 95.8428 81.8557 94.6694 81.7461C93.4424 81.6337 91.7899 81.541 90.5563 81.5007C89.5511 81.4594 88.2016 81.4773 87.2002 81.5142C86.088 81.5638 84.6128 81.6688 83.5126 81.7943C82.599 81.895 80.2395 82.2071 77.739 82.936C76.8435 83.1989 75.6714 83.6079 74.8133 83.9749C74.0183 84.3158 72.9721 84.831 72.2502 85.3102C71.2949 85.9325 70.8169 86.2745 69.9288 87.1422C69.7415 87.3255 69.4963 87.5861 69.3343 87.7976C69.0802 88.1223 68.7653 88.578 68.5447 88.9286L68.5321 88.9145Z" stroke="white" stroke-width="0.5" stroke-miterlimit="10"/>
<path d="M68.3663 172.082C75.0896 165.289 85.0436 152.052 90.5564 142.573C66.2379 124.626 58.0234 98.4582 72.2088 84.1326C66.6878 93.6134 52.8274 94.4196 41.3062 85.913C20.3916 107.042 32.5079 145.624 68.3603 172.093L68.3663 172.082Z" stroke="white" stroke-width="0.5" stroke-miterlimit="10"/>
<path d="M75.8787 163.516C45.8393 141.348 35.6927 109.026 53.2125 91.3328" stroke="white" stroke-width="0.5" stroke-miterlimit="10"/>
<path d="M83.8488 152.926C57.9546 133.818 49.2042 105.95 64.3133 90.6942" stroke="white" stroke-width="0.5" stroke-miterlimit="10"/>
<path d="M41.3125 85.9035C52.8336 94.4102 66.6962 93.6121 72.215 84.1231C86.3981 69.7893 117.608 72.7269 141.927 90.6747C136.406 100.155 137.385 102.35 144.11 95.5647C108.25 69.0984 62.2271 64.7741 41.3125 85.9035Z" stroke="white" stroke-width="0.5" stroke-miterlimit="10"/>
<path d="M64.3048 90.6955C79.4117 75.4314 112.645 78.5624 138.539 97.6706" stroke="white" stroke-width="0.5" stroke-miterlimit="10"/>
<path d="M69.2853 73.1407C75.8421 83.913 85.661 84.9527 91.182 75.4719" stroke="white" stroke-width="0.5" stroke-miterlimit="10"/>
<path d="M106.162 76.6013C106.173 86.7567 110.676 87.3001 116.186 77.8133" stroke="white" stroke-width="0.5" stroke-miterlimit="10"/>
<path d="M144.111 95.5641C137.387 102.357 136.416 100.161 141.927 90.6741C166.245 108.622 174.46 134.789 160.274 149.115C154.753 158.596 159.641 173.229 171.162 181.736C192.077 160.606 179.961 122.024 144.108 95.556L144.111 95.5641Z" stroke="white" stroke-width="0.5" stroke-miterlimit="10"/>
<path d="M138.549 97.6692C164.443 116.777 173.193 144.645 158.084 159.901" stroke="white" stroke-width="0.5" stroke-miterlimit="10"/>
<path d="M171.709 124.972C160.091 126.545 155.125 120.104 160.646 110.623" stroke="white" stroke-width="0.5" stroke-miterlimit="10"/>
<path d="M181.409 155.886C168.066 151.968 161.704 141.072 167.223 131.583" stroke="white" stroke-width="0.5" stroke-miterlimit="10"/>
<path d="M90.5568 142.574C96.0778 133.093 95.0986 130.898 88.373 137.683C52.5124 111.217 40.4065 72.6414 61.3189 51.5038C72.8401 60.0104 77.7257 74.6356 72.2069 84.1246C58.0238 98.4584 66.236 124.618 90.5546 142.565L90.5568 142.574Z" stroke="white" stroke-width="0.5" stroke-miterlimit="10"/>
<path d="M72.2072 84.1239C77.7282 74.643 72.8403 60.0097 61.3191 51.5031C82.2338 30.3737 128.256 34.698 164.117 61.1643C157.394 67.9576 147.44 81.1946 141.919 90.6754C117.6 72.7276 86.3925 69.7982 72.2072 84.1239Z" stroke="white" stroke-width="0.5" stroke-miterlimit="10"/>
<path d="M91.183 75.4705C96.704 65.9897 95.8577 49.5105 89.3008 38.7382" stroke="white" stroke-width="0.5" stroke-miterlimit="10"/>
<path d="M116.197 77.8178C121.718 68.3369 126.19 52.3623 126.179 42.2068" stroke="white" stroke-width="0.5" stroke-miterlimit="10"/>
<path d="M141.926 90.6734C147.447 81.1926 157.399 67.9474 164.124 61.1622C199.985 87.6285 212.091 126.204 191.178 147.342C179.657 138.835 165.795 139.633 160.276 149.122C174.459 134.789 166.247 108.629 141.928 90.6816L141.926 90.6734Z" stroke="white" stroke-width="0.5" stroke-miterlimit="10"/>
<path d="M160.644 110.62C166.165 101.139 180.104 92.1409 191.722 90.5678" stroke="white" stroke-width="0.5" stroke-miterlimit="10"/>
<path d="M167.222 131.582C172.743 122.101 188.079 117.565 201.422 121.483" stroke="white" stroke-width="0.5" stroke-miterlimit="10"/>
<path d="M68.5321 88.9137C59.8901 103.761 68.7494 126.471 90.5572 142.574C114.876 160.522 146.083 163.451 160.269 149.126C154.748 158.606 159.636 173.24 171.157 181.746C150.242 202.876 104.219 198.551 68.3589 172.085C36.2019 148.351 23.1419 114.865 35.8778 92.9682C48.3647 100.216 63.0051 98.4049 68.5239 88.9159L68.5321 88.9137Z" stroke="white" stroke-width="0.5" stroke-miterlimit="10"/>
<path d="M171.162 181.736C159.641 173.23 154.755 158.604 160.274 149.115C146.091 163.449 114.881 160.512 90.5624 142.564C85.0413 152.045 75.0896 165.29 68.3722 172.073C104.233 198.539 150.256 202.863 171.17 181.734L171.162 181.736Z" stroke="white" stroke-width="0.5" stroke-miterlimit="10"/>
<path d="M161.994 171.609C144.477 189.31 105.919 185.685 75.8798 163.517" stroke="white" stroke-width="0.5" stroke-miterlimit="10"/>
<path d="M158.083 159.901C142.976 175.165 109.743 172.034 83.8492 152.926" stroke="white" stroke-width="0.5" stroke-miterlimit="10"/>
<path d="M143.182 194.509C136.626 183.737 135.782 167.266 141.3 157.777" stroke="white" stroke-width="0.5" stroke-miterlimit="10"/>
<path d="M106.305 191.042C106.293 180.886 110.774 164.909 116.287 155.431" stroke="white" stroke-width="0.5" stroke-miterlimit="10"/>
<path d="M68.3668 172.084C75.0901 165.291 85.0441 152.054 90.5569 142.575C66.2383 124.627 58.0239 98.4599 72.2093 84.1342C66.6883 93.6151 52.8279 94.4213 41.3067 85.9146C20.3921 107.044 32.5084 145.626 68.3608 172.094L68.3668 172.084Z" stroke="white" stroke-width="0.5" stroke-miterlimit="10"/>
<path d="M75.8791 163.518C45.8398 141.35 35.6931 109.027 53.213 91.3343" stroke="white" stroke-width="0.5" stroke-miterlimit="10"/>
<path d="M40.7683 142.678C52.3869 141.105 66.3275 132.115 71.8463 122.626" stroke="white" stroke-width="0.5" stroke-miterlimit="10"/>
<path d="M31.0584 111.756C44.401 115.674 59.7377 111.139 65.2588 101.658" stroke="white" stroke-width="0.5" stroke-miterlimit="10"/>
<path d="M160.274 149.116C165.795 139.635 179.655 138.829 191.176 147.335C170.262 168.465 124.239 164.141 88.3784 137.674C95.1017 130.881 96.0728 133.078 90.5622 142.564C114.881 160.512 146.088 163.442 160.274 149.116Z" stroke="white" stroke-width="0.5" stroke-miterlimit="10"/>
<path d="M141.301 157.777C146.822 148.296 156.641 149.336 163.198 160.108" stroke="white" stroke-width="0.5" stroke-miterlimit="10"/>
<path d="M116.287 155.431C121.808 145.95 126.302 146.496 126.311 156.643" stroke="white" stroke-width="0.5" stroke-miterlimit="10"/>
<path d="M90.5571 142.575C96.0781 133.094 95.0989 130.9 88.3733 137.685C52.5127 111.219 40.4068 72.643 61.3192 51.5054C72.8404 60.012 77.726 74.6372 72.2072 84.1262C58.0241 98.46 66.2363 124.619 90.5549 142.567L90.5571 142.575Z" stroke="white" stroke-width="0.5" stroke-miterlimit="10"/>
<path d="M71.8388 122.628C77.3598 113.147 72.394 106.706 60.7754 108.279" stroke="white" stroke-width="0.5" stroke-miterlimit="10"/>
<path d="M65.2594 101.659C70.7804 92.1786 64.4161 81.2743 51.0736 77.3564" stroke="white" stroke-width="0.5" stroke-miterlimit="10"/>
<path d="M68.5321 88.9137C59.8901 103.761 68.7494 126.471 90.5572 142.574C114.876 160.522 146.083 163.451 160.269 149.126C154.748 158.606 159.636 173.24 171.157 181.746C150.242 202.876 104.219 198.551 68.3589 172.085C36.2019 148.351 23.1419 114.865 35.8778 92.9682C48.3647 100.216 63.0051 98.4049 68.5239 88.9159L68.5321 88.9137Z" stroke="white" stroke-width="0.5" stroke-miterlimit="10"/>
<path d="M176.592 174.68C175.127 177.201 173.32 179.56 171.165 181.743C159.643 173.236 154.758 158.611 160.277 149.122C161.738 147.649 162.959 146.039 163.952 144.333C158.431 153.814 164.105 167.432 176.583 174.682L176.592 174.68Z" stroke="white" stroke-width="0.5" stroke-miterlimit="10"/>
<path d="M144.111 95.5641C137.387 102.357 136.416 100.161 141.927 90.6741C166.245 108.622 174.46 134.789 160.274 149.115C154.753 158.596 159.641 173.229 171.162 181.736C192.077 160.606 179.961 122.024 144.108 95.556L144.111 95.5641Z" stroke="white" stroke-width="0.5" stroke-miterlimit="10"/>
<path d="M138.548 97.6695C164.442 116.778 173.192 144.645 158.083 159.901" stroke="white" stroke-width="0.5" stroke-miterlimit="10"/>
<path d="M141.927 90.673C147.448 81.1921 157.4 67.947 164.125 61.1618C199.986 87.6281 212.092 126.204 191.179 147.342C179.658 138.835 165.795 139.633 160.277 149.122C174.46 134.788 166.248 108.629 141.929 90.6812L141.927 90.673Z" stroke="white" stroke-width="0.5" stroke-miterlimit="10"/>
<path d="M176.592 174.68C175.127 177.201 173.32 179.56 171.165 181.743C159.643 173.236 154.758 158.611 160.277 149.122C161.738 147.649 162.959 146.039 163.952 144.333C158.431 153.814 164.105 167.432 176.583 174.682L176.592 174.68Z" stroke="white" stroke-width="0.5" stroke-miterlimit="10"/>
<path d="M162.566 146.112C161.699 146.992 160.927 147.995 160.275 149.115C146.092 163.449 114.882 160.511 90.5634 142.563C68.7497 126.471 59.8985 103.759 68.5383 88.9028C68.3505 89.2445 68.1286 89.7187 67.9802 90.076C67.8941 90.2755 67.8177 90.5427 67.7503 90.7459C67.5946 91.2371 67.445 91.9113 67.3905 92.4187C67.3331 92.9798 67.2737 93.726 67.2535 94.2944C67.2443 94.7103 67.2791 95.2549 67.2885 95.6745C67.3146 96.3798 67.4324 97.3238 67.5634 98.0267C67.7857 99.2235 68.1751 100.806 68.5305 101.975C68.824 102.95 69.3194 104.213 69.6947 105.165C70.0677 106.11 70.6486 107.331 71.1072 108.235C71.5509 109.116 72.1979 110.258 72.678 111.111C73.6702 112.871 75.4579 115.513 77.0218 117.53C77.8123 118.553 78.9 119.891 79.747 120.864C80.6216 121.873 81.8484 123.173 82.7653 124.145C83.7351 125.181 85.11 126.475 86.1563 127.438C87.2489 128.44 88.7673 129.713 89.8858 130.682C91.0506 131.691 92.6776 132.942 93.924 133.832C95.2017 134.74 96.8822 135.995 98.2179 136.825C99.5431 137.65 101.287 138.781 102.628 139.566C103.95 140.348 105.732 141.363 107.114 142.04C108.474 142.705 110.271 143.612 111.647 144.238C113.002 144.851 114.833 145.625 116.213 146.171C119.162 147.333 122.305 148.372 125.249 149.166C126.522 149.512 128.238 149.931 129.536 150.208C130.845 150.492 132.603 150.81 133.925 151.011C135.092 151.193 136.658 151.388 137.831 151.498C139.058 151.611 140.711 151.703 141.945 151.743C142.95 151.785 144.299 151.767 145.301 151.73C146.413 151.68 147.888 151.575 148.988 151.45C149.867 151.35 152.237 151.044 154.762 150.308C155.34 150.141 156.109 149.895 156.672 149.671C157.394 149.385 158.35 148.991 159.033 148.628C159.662 148.289 160.486 147.799 161.068 147.385C161.554 147.041 162.136 146.503 162.572 146.102L162.566 146.112Z" stroke="white" stroke-width="0.5" stroke-miterlimit="10"/>
<path d="M171.162 181.736C159.641 173.23 154.755 158.604 160.274 149.115C146.091 163.449 114.881 160.512 90.5624 142.564C85.0413 152.045 75.0896 165.29 68.3722 172.073C104.233 198.539 150.256 202.863 171.17 181.734L171.162 181.736Z" stroke="white" stroke-width="0.5" stroke-miterlimit="10"/>
<path d="M143.182 194.509C136.626 183.737 135.782 167.266 141.3 157.777" stroke="white" stroke-width="0.5" stroke-miterlimit="10"/>
<path d="M106.305 191.042C106.293 180.886 110.774 164.909 116.287 155.431" stroke="white" stroke-width="0.5" stroke-miterlimit="10"/>
<path d="M68.3668 172.084C75.0901 165.291 85.0441 152.054 90.5569 142.575C66.2383 124.627 58.0239 98.4599 72.2093 84.1342C66.6883 93.6151 52.8279 94.4213 41.3067 85.9146C20.3921 107.044 32.5084 145.626 68.3608 172.094L68.3668 172.084Z" stroke="white" stroke-width="0.5" stroke-miterlimit="10"/>
<path d="M40.7683 142.678C52.3869 141.105 66.3275 132.115 71.8463 122.626" stroke="white" stroke-width="0.5" stroke-miterlimit="10"/>
<path d="M31.0584 111.756C44.401 115.674 59.7377 111.139 65.2588 101.658" stroke="white" stroke-width="0.5" stroke-miterlimit="10"/>
<path d="M160.274 149.116C165.795 139.635 179.655 138.829 191.176 147.335C170.262 168.465 124.239 164.141 88.3784 137.674C95.1017 130.881 96.0728 133.078 90.5622 142.564C114.881 160.512 146.088 163.442 160.274 149.116Z" stroke="white" stroke-width="0.5" stroke-miterlimit="10"/>
<path d="M168.178 142.555C153.072 157.819 119.839 154.688 93.9445 135.579" stroke="white" stroke-width="0.5" stroke-miterlimit="10"/>
<path d="M141.301 157.777C146.822 148.296 156.641 149.336 163.198 160.108" stroke="white" stroke-width="0.5" stroke-miterlimit="10"/>
<path d="M116.287 155.431C121.808 145.95 126.302 146.496 126.311 156.643" stroke="white" stroke-width="0.5" stroke-miterlimit="10"/>
<path d="M90.5571 142.575C96.0781 133.094 95.0989 130.9 88.3733 137.685C52.5127 111.219 40.4068 72.643 61.3192 51.5054C72.8404 60.012 77.726 74.6372 72.2072 84.1262C58.0241 98.46 66.2363 124.619 90.5549 142.567L90.5571 142.575Z" stroke="white" stroke-width="0.5" stroke-miterlimit="10"/>
<path d="M93.9363 135.583C68.0421 116.474 59.2916 88.607 74.4007 73.3511" stroke="white" stroke-width="0.5" stroke-miterlimit="10"/>
<path d="M71.8388 122.628C77.3598 113.147 72.394 106.706 60.7754 108.279" stroke="white" stroke-width="0.5" stroke-miterlimit="10"/>
<path d="M65.2594 101.659C70.7804 92.1786 64.4161 81.2743 51.0736 77.3564" stroke="white" stroke-width="0.5" stroke-miterlimit="10"/>
<path d="M162.566 146.112C161.699 146.992 160.927 147.995 160.275 149.115C146.092 163.449 114.882 160.511 90.5634 142.563C68.7497 126.471 59.8985 103.759 68.5383 88.9028C68.3505 89.2445 68.1286 89.7187 67.9802 90.076C67.8941 90.2755 67.8177 90.5427 67.7503 90.7459C67.5946 91.2371 67.445 91.9113 67.3905 92.4187C67.3331 92.9798 67.2737 93.726 67.2535 94.2944C67.2443 94.7103 67.2791 95.2549 67.2885 95.6745C67.3146 96.3798 67.4324 97.3238 67.5634 98.0267C67.7857 99.2235 68.1751 100.806 68.5305 101.975C68.824 102.95 69.3194 104.213 69.6947 105.165C70.0677 106.11 70.6486 107.331 71.1072 108.235C71.5509 109.116 72.1979 110.258 72.678 111.111C73.6702 112.871 75.4579 115.513 77.0218 117.53C77.8123 118.553 78.9 119.891 79.747 120.864C80.6216 121.873 81.8484 123.173 82.7653 124.145C83.7351 125.181 85.11 126.475 86.1563 127.438C87.2489 128.44 88.7673 129.713 89.8858 130.682C91.0506 131.691 92.6776 132.942 93.924 133.832C95.2017 134.74 96.8822 135.995 98.2179 136.825C99.5431 137.65 101.287 138.781 102.628 139.566C103.95 140.348 105.732 141.363 107.114 142.04C108.474 142.705 110.271 143.612 111.647 144.238C113.002 144.851 114.833 145.625 116.213 146.171C119.162 147.333 122.305 148.372 125.249 149.166C126.522 149.512 128.238 149.931 129.536 150.208C130.845 150.492 132.603 150.81 133.925 151.011C135.092 151.193 136.658 151.388 137.831 151.498C139.058 151.611 140.711 151.703 141.945 151.743C142.95 151.785 144.299 151.767 145.301 151.73C146.413 151.68 147.888 151.575 148.988 151.45C149.867 151.35 152.237 151.044 154.762 150.308C155.34 150.141 156.109 149.895 156.672 149.671C157.394 149.385 158.35 148.991 159.033 148.628C159.662 148.289 160.486 147.799 161.068 147.385C161.554 147.041 162.136 146.503 162.572 146.102L162.566 146.112Z" stroke="white" stroke-width="0.5" stroke-miterlimit="10"/>
<path d="M93.905 133.829C96.4441 135.649 99.9062 137.981 102.6 139.565C107.401 142.384 111.593 144.235 111.632 144.25C112.979 144.831 114.768 145.616 116.139 146.156C117.49 146.691 119.306 147.381 120.699 147.809C122.004 148.208 123.724 148.801 125.054 149.131C126.337 149.448 128.045 149.904 129.344 150.182C130.597 150.454 132.295 150.745 133.553 150.972C135.477 151.316 139.439 151.717 141.353 151.738C142.535 151.749 144.109 151.81 145.286 151.743C146.976 151.649 149.231 151.471 150.896 151.191C151.772 151.048 152.944 150.832 153.798 150.581C154.393 150.409 155.197 150.198 155.786 150.001C156.492 149.755 157.414 149.397 158.097 149.095C158.765 148.807 159.636 148.357 160.238 147.955C160.506 147.776 160.867 147.554 161.12 147.353C161.569 147.001 162.147 146.509 162.56 146.123C169.036 139.582 181.008 139.847 191.171 147.345C170.257 168.474 124.234 164.15 88.3733 137.683C56.2163 113.949 43.1564 80.4636 55.8922 58.5665C68.3792 65.8148 74.0427 79.4264 68.5239 88.9154C68.4311 89.0904 68.2922 89.3219 68.2098 89.5028C68.0473 89.8728 67.8403 90.3692 67.7336 90.7503C67.5224 91.5205 67.3713 92.1248 67.2745 93.409C67.2084 94.2275 67.2431 95.3174 67.3088 96.135C67.3819 97.0121 67.5908 98.1598 67.7398 99.0249C67.8978 99.9227 68.2473 101.102 68.5116 101.971C68.7319 102.711 69.0849 103.679 69.3684 104.392C70.0398 106.073 70.8036 107.834 72.3422 110.561C73.7243 113.006 75.4233 115.452 76.7443 117.192C77.5669 118.268 78.6971 119.665 79.5761 120.691C80.4425 121.702 81.6671 122.994 82.578 123.976C83.5754 125.048 84.9883 126.385 86.06 127.376C87.1525 128.378 88.6627 129.653 89.7813 130.622C90.9587 131.645 92.6169 132.915 93.876 133.819L93.905 133.829Z" stroke="white" stroke-width="0.5" stroke-miterlimit="10"/>
<path d="M171.162 181.734C159.641 173.227 154.755 158.602 160.274 149.113C146.091 163.447 114.881 160.51 90.5627 142.562C85.0416 152.043 75.0899 165.288 68.3725 172.071C104.233 198.537 150.256 202.861 171.17 181.732L171.162 181.734Z" stroke="white" stroke-width="0.5" stroke-miterlimit="10"/>
<path d="M143.183 194.507C136.626 183.735 135.782 167.264 141.301 157.775" stroke="white" stroke-width="0.5" stroke-miterlimit="10"/>
<path d="M106.305 191.04C106.294 180.884 110.774 164.907 116.287 155.429" stroke="white" stroke-width="0.5" stroke-miterlimit="10"/>
<path d="M68.3669 172.081C75.0902 165.288 85.0442 152.051 90.5571 142.572C66.2385 124.625 58.0241 98.4573 72.2094 84.1317C66.6884 93.6125 52.828 94.4187 41.3068 85.9121C20.3922 107.042 32.5085 145.623 68.3609 172.092L68.3669 172.081Z" stroke="white" stroke-width="0.5" stroke-miterlimit="10"/>
<path d="M40.7685 142.675C52.3871 141.102 66.3277 132.112 71.8464 122.623" stroke="white" stroke-width="0.5" stroke-miterlimit="10"/>
<path d="M31.0586 111.754C44.4012 115.672 59.7379 111.136 65.2589 101.655" stroke="white" stroke-width="0.5" stroke-miterlimit="10"/>
<path d="M160.275 149.113C165.796 139.632 179.657 138.826 191.178 147.333C170.263 168.462 124.241 164.138 88.3799 137.671C95.1032 130.878 96.0744 133.075 90.5638 142.561C114.882 160.509 146.09 163.439 160.275 149.113Z" stroke="white" stroke-width="0.5" stroke-miterlimit="10"/>
<path d="M168.178 142.552C153.072 157.816 119.839 154.685 93.9445 135.577" stroke="white" stroke-width="0.5" stroke-miterlimit="10"/>
<path d="M141.302 157.774C146.823 148.293 156.642 149.333 163.199 160.105" stroke="white" stroke-width="0.5" stroke-miterlimit="10"/>
<path d="M116.287 155.428C121.808 145.947 126.303 146.493 126.312 156.64" stroke="white" stroke-width="0.5" stroke-miterlimit="10"/>
<path d="M90.5574 142.573C96.0784 133.092 95.0992 130.898 88.3736 137.683C52.513 111.217 40.4071 72.6408 61.3195 51.5032C72.8407 60.0098 77.7263 74.6349 72.2075 84.1239C58.0244 98.4577 66.2366 124.617 90.5552 142.565L90.5574 142.573Z" stroke="white" stroke-width="0.5" stroke-miterlimit="10"/>
<path d="M93.9366 135.58C68.0424 116.472 59.2919 88.6048 74.401 73.3489" stroke="white" stroke-width="0.5" stroke-miterlimit="10"/>
<path d="M71.8392 122.626C77.3602 113.145 72.3944 106.704 60.7757 108.277" stroke="white" stroke-width="0.5" stroke-miterlimit="10"/>
<path d="M65.2598 101.657C70.7808 92.1764 64.4165 81.2721 51.0739 77.3542" stroke="white" stroke-width="0.5" stroke-miterlimit="10"/>
<path d="M191.178 147.333C202.697 155.831 207.576 170.467 202.066 179.953C174.419 207.878 113.584 202.167 66.1917 167.189C71.7127 157.708 81.6645 144.463 88.3819 137.68C124.242 164.146 170.265 168.47 191.18 147.341L191.178 147.333Z" stroke="white" stroke-width="0.5" stroke-miterlimit="10"/>
<path d="M163.199 160.106C169.753 170.87 170.6 187.35 165.079 196.83" stroke="white" stroke-width="0.5" stroke-miterlimit="10"/>
<path d="M126.32 156.637C126.331 166.792 121.851 182.769 116.338 192.248" stroke="white" stroke-width="0.5" stroke-miterlimit="10"/>
<path d="M88.3813 137.679C81.6661 144.47 71.7039 157.71 66.1911 167.188C18.7989 132.209 2.78073 81.2133 30.435 53.286C35.9561 43.8052 49.8164 42.9989 61.3376 51.5055C40.423 72.635 52.5393 111.217 88.3917 137.685L88.3813 137.679Z" stroke="white" stroke-width="0.5" stroke-miterlimit="10"/>
<path d="M60.7834 108.273C49.1648 109.846 35.2243 118.836 29.7136 128.323" stroke="white" stroke-width="0.5" stroke-miterlimit="10"/>
<path d="M51.0755 77.3584C37.7329 73.4405 22.3962 77.9757 16.8751 87.4566" stroke="white" stroke-width="0.5" stroke-miterlimit="10"/>
<path d="M68.5322 88.9145C74.0532 79.4337 68.3793 65.816 55.9005 58.5656C57.3649 56.0448 59.1724 53.6851 61.3275 51.5028C82.2421 30.3734 128.265 34.6977 164.125 61.164C196.282 84.898 209.342 118.384 196.607 140.281C184.12 133.033 169.479 134.844 163.96 144.333C172.602 129.485 163.743 106.775 141.935 90.6729C117.617 72.7251 86.4091 69.7957 72.2237 84.1214C70.7627 85.5946 69.5414 87.2044 68.5485 88.91L68.5322 88.9145Z" stroke="white" stroke-width="0.5" stroke-miterlimit="10"/>
<path d="M68.3668 172.084C75.0901 165.291 85.0441 152.054 90.557 142.575C66.2384 124.627 58.024 98.4601 72.2093 84.1345C66.6883 93.6153 52.828 94.4215 41.3068 85.9149C20.3922 107.044 32.5085 145.626 68.3609 172.095L68.3668 172.084Z" stroke="white" stroke-width="0.5" stroke-miterlimit="10"/>
<path d="M41.313 85.904C52.8341 94.4107 66.6967 93.6126 72.2155 84.1236C86.3986 69.7898 117.608 72.7274 141.927 90.6752C136.406 100.156 137.385 102.35 144.111 95.5652C108.25 69.0989 62.2276 64.7746 41.313 85.904Z" stroke="white" stroke-width="0.5" stroke-miterlimit="10"/>
<path d="M69.2854 73.1407C75.8422 83.9131 85.661 84.9528 91.1821 75.4719" stroke="white" stroke-width="0.5" stroke-miterlimit="10"/>
<path d="M106.162 76.6014C106.173 86.7568 110.676 87.3001 116.186 77.8134" stroke="white" stroke-width="0.5" stroke-miterlimit="10"/>
<path d="M144.111 95.5646C137.387 102.358 136.416 100.161 141.927 90.6746C166.246 108.622 174.46 134.79 160.275 149.115C154.754 158.596 159.641 173.229 171.163 181.736C192.077 160.607 179.961 122.025 144.109 95.5565L144.111 95.5646Z" stroke="white" stroke-width="0.5" stroke-miterlimit="10"/>
<path d="M171.71 124.973C160.091 126.546 155.125 120.105 160.646 110.624" stroke="white" stroke-width="0.5" stroke-miterlimit="10"/>
<path d="M181.409 155.886C168.067 151.968 161.705 141.072 167.223 131.583" stroke="white" stroke-width="0.5" stroke-miterlimit="10"/>
<path d="M90.5574 142.576C96.0784 133.095 95.0992 130.901 88.3736 137.686C52.513 111.22 40.4071 72.6438 61.3195 51.5061C72.8407 60.0128 77.7263 74.6379 72.2075 84.1269C58.0244 98.4607 66.2366 124.62 90.5552 142.568L90.5574 142.576Z" stroke="white" stroke-width="0.5" stroke-miterlimit="10"/>
<path d="M93.9366 135.583C68.0424 116.475 59.2919 88.6077 74.401 73.3518" stroke="white" stroke-width="0.5" stroke-miterlimit="10"/>
<path d="M72.2077 84.126C77.7287 74.6452 72.8408 60.0119 61.3196 51.5052C82.2342 30.3758 128.257 34.7001 164.118 61.1664C157.394 67.9598 147.44 81.1967 141.919 90.6775C117.601 72.7298 86.393 69.8004 72.2077 84.126Z" stroke="white" stroke-width="0.5" stroke-miterlimit="10"/>
<path d="M74.4005 73.3486C89.5074 58.0846 122.74 61.2156 148.634 80.3237" stroke="white" stroke-width="0.5" stroke-miterlimit="10"/>
<path d="M70.4979 61.6393C88.0156 43.9382 126.573 47.5633 156.612 69.7313" stroke="white" stroke-width="0.5" stroke-miterlimit="10"/>
<path d="M91.1829 75.4702C96.704 65.9893 95.8576 49.5102 89.3008 38.7378" stroke="white" stroke-width="0.5" stroke-miterlimit="10"/>
<path d="M116.197 77.8192C121.718 68.3384 126.19 52.3637 126.179 42.2083" stroke="white" stroke-width="0.5" stroke-miterlimit="10"/>
<path d="M141.927 90.6763C147.448 81.1954 157.4 67.9503 164.126 61.1651C199.986 87.6314 212.092 126.207 191.18 147.345C179.658 138.838 165.796 139.636 160.277 149.125C174.46 134.791 166.248 108.632 141.929 90.6845L141.927 90.6763Z" stroke="white" stroke-width="0.5" stroke-miterlimit="10"/>
<path d="M148.642 80.3232C174.536 99.4313 183.287 127.299 168.178 142.555" stroke="white" stroke-width="0.5" stroke-miterlimit="10"/>
<path d="M156.601 69.7262C186.641 91.8942 196.787 124.217 179.268 141.91" stroke="white" stroke-width="0.5" stroke-miterlimit="10"/>
<path d="M160.645 110.623C166.166 101.142 180.104 92.1438 191.723 90.5708" stroke="white" stroke-width="0.5" stroke-miterlimit="10"/>
<path d="M167.222 131.585C172.743 122.104 188.08 117.569 201.423 121.487" stroke="white" stroke-width="0.5" stroke-miterlimit="10"/>
<path d="M61.3196 51.5046C49.8007 43.0061 35.9381 43.8042 30.417 53.285C58.0632 25.36 118.899 31.071 166.291 66.0499C171.812 56.569 170.833 54.3746 164.107 61.1598C128.247 34.6935 82.2238 30.3692 61.3092 51.4987L61.3196 51.5046Z" stroke="white" stroke-width="0.5" stroke-miterlimit="10"/>
<path d="M89.3009 38.7386C82.7463 27.9744 72.9253 26.9267 67.4042 36.4075" stroke="white" stroke-width="0.5" stroke-miterlimit="10"/>
<path d="M126.18 42.2089C126.169 32.0535 121.666 31.5102 116.156 40.9969" stroke="white" stroke-width="0.5" stroke-miterlimit="10"/>
<path d="M164.117 61.1662C170.832 54.3751 171.811 56.5695 166.301 66.0563C213.693 101.035 229.711 152.031 202.057 179.958C207.578 170.478 202.69 155.844 191.169 147.338C212.083 126.208 199.967 87.6266 164.115 61.1581L164.117 61.1662Z" stroke="white" stroke-width="0.5" stroke-miterlimit="10"/>
<path d="M191.716 90.5735C203.334 89.0005 208.292 95.4439 202.779 104.922" stroke="white" stroke-width="0.5" stroke-miterlimit="10"/>
<path d="M201.423 121.487C214.765 125.405 221.127 136.301 215.606 145.782" stroke="white" stroke-width="0.5" stroke-miterlimit="10"/>
<path d="M68.5322 88.9145C74.0532 79.4337 68.3793 65.816 55.9005 58.5656C57.3649 56.0448 59.1724 53.6851 61.3275 51.5028C82.2421 30.3734 128.265 34.6977 164.125 61.164C196.282 84.898 209.342 118.384 196.607 140.281C184.12 133.033 169.479 134.844 163.96 144.333C172.602 129.485 163.743 106.775 141.935 90.6729C117.617 72.7251 86.4091 69.7957 72.2237 84.1214C70.7627 85.5946 69.5414 87.2044 68.5485 88.91L68.5322 88.9145Z" stroke="white" stroke-width="0.5" stroke-miterlimit="10"/>
<path d="M163.952 144.335C162.959 146.04 161.736 147.642 160.277 149.123C160.929 148.004 161.701 147.001 162.568 146.121C162.753 145.93 163.001 145.677 163.163 145.466C163.417 145.141 163.732 144.685 163.952 144.335Z" stroke="white" stroke-width="0.5" stroke-miterlimit="10"/>
<path d="M144.111 95.5641C137.387 102.357 136.416 100.161 141.927 90.6741C166.245 108.622 174.46 134.789 160.274 149.115C154.753 158.596 159.641 173.229 171.162 181.736C192.077 160.606 179.961 122.024 144.108 95.556L144.111 95.5641Z" stroke="white" stroke-width="0.5" stroke-miterlimit="10"/>
<path d="M163.952 144.335C162.959 146.04 161.736 147.642 160.277 149.123C160.929 148.004 161.701 147.001 162.568 146.121C162.753 145.93 163.001 145.677 163.163 145.466C163.417 145.141 163.732 144.685 163.952 144.335Z" stroke="white" stroke-width="0.5" stroke-miterlimit="10"/>
<path d="M162.566 146.113C162.871 145.783 163.264 145.323 163.536 144.967C163.68 144.787 163.837 144.524 163.95 144.326C169.471 134.845 184.109 133.026 196.596 140.274C195.131 142.795 193.324 145.154 191.169 147.337C181.014 139.837 169.033 139.574 162.557 146.115L162.566 146.113Z" stroke="white" stroke-width="0.5" stroke-miterlimit="10"/>
<path d="M144.111 95.5642C137.387 102.358 136.416 100.161 141.927 90.6741C166.245 108.622 174.46 134.789 160.274 149.115C154.753 158.596 159.641 173.229 171.162 181.736C192.077 160.606 179.961 122.025 144.108 95.556L144.111 95.5642Z" stroke="white" stroke-width="0.5" stroke-miterlimit="10"/>
<path d="M156.602 69.7258C186.642 91.8939 196.788 124.216 179.269 141.909" stroke="white" stroke-width="0.5" stroke-miterlimit="10"/>
<path d="M164.118 61.1661C170.833 54.375 171.812 56.5694 166.301 66.0562C213.694 101.035 229.712 152.031 202.057 179.958C207.578 170.477 202.691 155.844 191.169 147.338C212.084 126.208 199.968 87.6265 164.115 61.158L164.118 61.1661Z" stroke="white" stroke-width="0.5" stroke-miterlimit="10"/>
<path d="M162.566 146.113C162.871 145.783 163.264 145.323 163.536 144.967C163.68 144.787 163.837 144.524 163.95 144.326C169.471 134.845 184.109 133.026 196.596 140.274C195.131 142.795 193.324 145.154 191.169 147.337C181.014 139.837 169.033 139.574 162.557 146.115L162.566 146.113Z" stroke="white" stroke-width="0.5" stroke-miterlimit="10"/>
<path d="M171.19 181.737C181.345 189.237 193.326 189.499 199.793 182.961C200.536 181.658 202.246 180.451 203.17 179.265C204.99 176.92 207.295 173.711 208.908 171.22C209.815 169.811 210.82 167.794 211.549 166.284C212.182 164.967 212.928 163.162 213.47 161.8C214.522 159.155 215.677 155.505 216.165 152.697C216.653 149.916 217.181 146.192 217.459 143.389C217.62 141.824 217.626 139.729 217.61 138.159C217.55 131.614 216.589 126.503 216.034 123.77C215.541 121.293 214.643 118.048 213.92 115.634C213.399 113.894 212.548 111.62 211.907 109.923C211.058 107.657 209.71 104.728 208.663 102.544C207.821 100.787 206.587 98.4949 205.621 96.7982C204.459 94.7416 202.788 92.0771 201.483 90.104C200.33 88.3703 198.732 86.0992 197.454 84.4527C196.022 82.5935 194.059 80.1495 192.534 78.3686C191.096 76.6865 189.103 74.5148 187.57 72.9296C185.924 71.2254 183.656 69.0145 181.914 67.4072C180.206 65.8259 177.891 63.7334 176.054 62.2929C174.14 60.7944 171.618 58.7497 169.666 57.3056C167.724 55.8674 165.114 53.9791 163.066 52.7017C161.04 51.4362 158.396 49.6535 156.313 48.5004C152.221 46.244 146.71 43.3381 142.494 41.3355C140.431 40.3528 137.608 39.1997 135.48 38.3666C133.352 37.5335 130.51 36.4385 128.322 35.7713C124.139 34.4986 118.509 32.9536 114.267 31.9167C112.128 31.3946 109.223 30.9677 107.055 30.5677C105.015 30.1853 102.249 29.8789 100.18 29.6803C98.0046 29.4759 95.0879 29.2634 92.9049 29.1929C90.934 29.1259 88.2973 29.1005 86.3251 29.157C84.1185 29.2249 81.1867 29.4388 78.9847 29.6198C77.136 29.7743 74.6782 30.1133 72.8499 30.4382C70.6094 30.8321 67.6267 31.438 65.4274 32.0141C59.1284 33.6779 55.4169 35.2838 52.3911 36.6316C50.9098 37.2924 48.9802 38.2431 47.5869 39.0646C45.2999 40.4122 42.3343 42.3328 40.1538 43.8447C37.7303 45.5288 34.7915 48.1896 32.7188 50.2878L32.7575 50.2684C30.6588 52.4 28.062 55.4421 26.3387 57.8843C25.4911 59.0927 24.3941 60.7389 23.6426 62.009C22.7901 63.4562 21.6896 65.4111 21.0017 66.9453C19.8513 69.5207 18.3218 72.9917 17.6173 75.7177C17.238 77.1585 16.6427 79.063 16.3772 80.5342C15.8796 83.309 15.2632 87.0312 15.0833 89.8421C14.9765 91.4106 14.8813 93.5036 14.9329 95.0726C15.0192 97.7315 15.2263 101.281 15.5632 103.924C15.7756 105.598 16.13 107.823 16.5001 109.463C17.0512 111.925 17.8918 115.186 18.6146 117.6C19.1351 119.34 19.9456 121.624 20.6193 123.313C21.5235 125.555 22.802 128.52 23.8631 130.692C24.7214 132.445 25.9337 134.751 26.9057 136.438C28.0813 138.482 29.7017 141.186 31.0438 143.132C33.4261 146.596 36.8571 151.03 39.5027 154.298C41.0329 156.192 43.3136 158.514 44.9568 160.306C46.5539 162.059 48.8701 164.221 50.6121 165.829C52.3205 167.41 54.7154 169.41 56.4722 170.943C58.3086 172.542 60.9081 174.486 62.8604 175.93C64.8023 177.369 67.4507 179.203 69.4602 180.534C71.4489 181.854 74.1492 183.524 76.2032 184.73C78.2259 185.917 80.9707 187.461 83.0729 188.521C85.1439 189.563 87.922 190.939 90.0322 191.9C92.1135 192.852 94.8966 194.086 97.0461 194.869C99.1956 195.653 102.016 196.797 104.204 197.465C108.387 198.737 114.011 200.293 118.259 201.319C120.397 201.833 123.295 202.332 125.471 202.668C127.704 203.015 130.702 203.399 132.958 203.608C134.955 203.8 137.618 203.985 139.621 204.043C141.92 204.117 144.991 204.155 147.291 204.044C149.174 203.951 151.672 203.821 153.542 203.616C155.915 203.353 159.073 202.937 161.413 202.489C163.126 202.161 165.405 201.686 167.091 201.224C169.535 200.546 172.792 199.627 175.138 198.686C176.643 198.08 178.67 197.322 180.127 196.607C182.576 195.399 185.835 193.75 188.134 192.285C189.431 191.463 191.162 190.365 192.358 189.404C194.659 187.56 197.639 184.985 199.793 182.961M199.793 182.961C193.318 189.502 181.345 189.237 171.19 181.737M171.19 181.737C173.345 179.554 175.153 177.195 176.617 174.674C189.353 152.777 176.293 119.291 144.136 95.5571C108.275 69.0908 62.2527 64.7665 41.338 85.8959C39.1829 88.0782 37.3754 90.4379 35.9111 92.9587C23.1752 114.856 36.2352 148.342 68.3921 172.076C104.253 198.542 150.275 202.866 171.19 181.737Z" stroke="white" stroke-width="0.5" stroke-miterlimit="10"/>
<path d="M191.178 147.333C202.696 155.831 207.576 170.467 202.066 179.953C174.419 207.878 113.584 202.167 66.1916 167.189C71.7126 157.708 81.6644 144.463 88.3818 137.68C124.242 164.146 170.265 168.47 191.18 147.341L191.178 147.333Z" stroke="white" stroke-width="0.5" stroke-miterlimit="10"/>
<path d="M204.248 169.17C177.526 196.165 118.713 190.647 72.8967 156.829" stroke="white" stroke-width="0.5" stroke-miterlimit="10"/>
<path d="M163.198 160.106C169.753 170.87 170.599 187.349 165.078 196.83" stroke="white" stroke-width="0.5" stroke-miterlimit="10"/>
<path d="M126.32 156.637C126.331 166.792 121.851 182.769 116.338 192.248" stroke="white" stroke-width="0.5" stroke-miterlimit="10"/>
<path d="M72.8994 156.839C27.0827 123.02 11.6007 73.7243 38.3312 46.7272" stroke="white" stroke-width="0.5" stroke-miterlimit="10"/>
<path d="M60.7833 108.273C49.1647 109.846 35.2241 118.836 29.7135 128.323" stroke="white" stroke-width="0.5" stroke-miterlimit="10"/>
<path d="M51.0761 77.3611C37.7335 73.4431 22.3968 77.9784 16.8757 87.4592" stroke="white" stroke-width="0.5" stroke-miterlimit="10"/>
<path d="M61.3186 51.502C49.7997 43.0035 35.9371 43.8016 30.4161 53.2825C58.0622 25.3574 118.898 31.0684 166.29 66.0473C171.811 56.5665 170.832 54.3721 164.106 61.1573C128.246 34.691 82.2228 30.3667 61.3082 51.4961L61.3186 51.502Z" stroke="white" stroke-width="0.5" stroke-miterlimit="10"/>
<path d="M89.3005 38.7356C82.7459 27.9714 72.9248 26.9236 67.4038 36.4044" stroke="white" stroke-width="0.5" stroke-miterlimit="10"/>
<path d="M126.18 42.2058C126.169 32.0504 121.667 31.507 116.156 40.9938" stroke="white" stroke-width="0.5" stroke-miterlimit="10"/>
<path d="M164.117 61.163C170.832 54.3719 171.812 56.5664 166.301 66.0531C213.693 101.032 229.711 152.028 202.057 179.955C207.578 170.474 202.69 155.841 191.169 147.335C212.084 126.205 199.967 87.6234 164.115 61.1549L164.117 61.163Z" stroke="white" stroke-width="0.5" stroke-miterlimit="10"/>
<path d="M191.715 90.5711C203.333 88.9981 208.291 95.4415 202.778 104.92" stroke="white" stroke-width="0.5" stroke-miterlimit="10"/>
<path d="M201.423 121.484C214.765 125.402 221.127 136.298 215.606 145.779" stroke="white" stroke-width="0.5" stroke-miterlimit="10"/>
<path d="M194.154 186.519C167.432 213.514 108.619 207.996 62.8024 174.178" stroke="white" stroke-width="0.5" stroke-miterlimit="10"/>
<path d="M165.078 196.831C159.557 206.312 149.739 205.272 143.182 194.5" stroke="white" stroke-width="0.5" stroke-miterlimit="10"/>
<path d="M116.337 192.248C110.816 201.729 106.321 201.183 106.312 191.036" stroke="white" stroke-width="0.5" stroke-miterlimit="10"/>
<path d="M66.1846 167.192C60.6636 176.673 61.6429 178.868 68.3684 172.082C32.5078 145.616 20.402 107.04 41.3143 85.9027C29.7954 77.4043 24.9157 62.7687 30.4263 53.282C2.78018 81.207 18.7901 132.205 66.1824 167.184L66.1846 167.192Z" stroke="white" stroke-width="0.5" stroke-miterlimit="10"/>
<path d="M62.8047 174.186C16.9881 140.367 1.506 91.0712 28.2366 64.0742" stroke="white" stroke-width="0.5" stroke-miterlimit="10"/>
<path d="M29.7044 128.319C24.1833 137.8 29.1492 144.241 40.7678 142.668" stroke="white" stroke-width="0.5" stroke-miterlimit="10"/>
<path d="M16.8755 87.4593C11.3545 96.9401 17.7187 107.844 31.0591 111.754" stroke="white" stroke-width="0.5" stroke-miterlimit="10"/>
<path d="M30.4274 53.2897C24.9064 62.7705 29.7943 77.4038 41.3155 85.9104C62.2301 64.781 108.253 69.1053 144.113 95.5716C150.829 88.7804 160.791 75.5413 166.304 66.0627C118.911 31.0838 58.0758 25.3728 30.4297 53.2979L30.4274 53.2897Z" stroke="white" stroke-width="0.5" stroke-miterlimit="10"/>
<path d="M28.2343 64.0674C54.9566 37.0726 113.769 42.5902 159.586 76.4087" stroke="white" stroke-width="0.5" stroke-miterlimit="10"/>
<path d="M32.1449 75.7748C56.4565 51.217 109.944 56.2406 151.624 86.9969" stroke="white" stroke-width="0.5" stroke-miterlimit="10"/>
<path d="M67.404 36.4057C61.8829 45.8865 62.7293 62.3656 69.2839 73.1298" stroke="white" stroke-width="0.5" stroke-miterlimit="10"/>
<path d="M116.152 40.9868C110.631 50.4676 106.159 66.4422 106.17 76.5977" stroke="white" stroke-width="0.5" stroke-miterlimit="10"/>
<path d="M159.585 76.406C205.402 110.225 220.884 159.52 194.153 186.517" stroke="white" stroke-width="0.5" stroke-miterlimit="10"/>
<path d="M151.616 86.9978C193.295 117.754 207.373 162.597 183.061 187.155" stroke="white" stroke-width="0.5" stroke-miterlimit="10"/>
<path d="M202.779 104.919C197.257 114.4 183.319 123.398 171.709 124.969" stroke="white" stroke-width="0.5" stroke-miterlimit="10"/>
<path d="M215.609 145.784C210.088 155.264 194.751 159.8 181.408 155.882" stroke="white" stroke-width="0.5" stroke-miterlimit="10"/>
<path d="M160.274 149.114C165.795 139.633 179.656 138.826 191.177 147.333C170.262 168.463 124.24 164.138 88.3789 137.672C95.1022 130.879 96.0733 133.075 90.5627 142.562C114.881 160.51 146.089 163.439 160.274 149.114Z" stroke="white" stroke-width="0.5" stroke-miterlimit="10"/>
<path d="M141.302 157.775C146.823 148.294 156.642 149.334 163.198 160.106" stroke="white" stroke-width="0.5" stroke-miterlimit="10"/>
<path d="M116.287 155.429C121.808 145.948 126.303 146.493 126.312 156.641" stroke="white" stroke-width="0.5" stroke-miterlimit="10"/>
<path d="M71.8396 122.626C77.3606 113.145 72.3948 106.704 60.7762 108.277" stroke="white" stroke-width="0.5" stroke-miterlimit="10"/>
<path d="M65.2604 101.658C70.7814 92.1771 64.4171 81.2728 51.0745 77.3549" stroke="white" stroke-width="0.5" stroke-miterlimit="10"/>
<path d="M91.1829 75.4707C96.7039 65.9899 95.8576 49.5107 89.3007 38.7383" stroke="white" stroke-width="0.5" stroke-miterlimit="10"/>
<path d="M160.646 110.62C166.167 101.139 180.106 92.1407 191.724 90.5677" stroke="white" stroke-width="0.5" stroke-miterlimit="10"/>
<path d="M167.224 131.581C172.745 122.1 188.082 117.565 201.424 121.483" stroke="white" stroke-width="0.5" stroke-miterlimit="10"/>
<path d="M200.348 157.47C176.036 182.028 122.548 177.004 80.8686 146.248" stroke="white" stroke-width="0.5" stroke-miterlimit="10"/>
<path d="M204.249 169.173C177.526 196.168 118.714 190.65 72.8971 156.831" stroke="white" stroke-width="0.5" stroke-miterlimit="10"/>
<path d="M163.199 160.109C169.754 170.873 170.6 187.352 165.079 196.833" stroke="white" stroke-width="0.5" stroke-miterlimit="10"/>
<path d="M80.8672 146.239C39.1876 115.482 25.1099 70.6391 49.4215 46.0813" stroke="white" stroke-width="0.5" stroke-miterlimit="10"/>
<path d="M72.8996 156.839C27.0829 123.02 11.6008 73.7246 38.3314 46.7275" stroke="white" stroke-width="0.5" stroke-miterlimit="10"/>
<path d="M60.7835 108.273C49.1649 109.846 35.2243 118.837 29.7137 128.323" stroke="white" stroke-width="0.5" stroke-miterlimit="10"/>
<path d="M51.0762 77.3613C37.7337 73.4434 22.3969 77.9787 16.8759 87.4595" stroke="white" stroke-width="0.5" stroke-miterlimit="10"/>
<path d="M89.3009 38.7364C82.7463 27.9722 72.9253 26.9244 67.4042 36.4052" stroke="white" stroke-width="0.5" stroke-miterlimit="10"/>
<path d="M126.181 42.2067C126.169 32.0512 121.667 31.5079 116.156 40.9947" stroke="white" stroke-width="0.5" stroke-miterlimit="10"/>
<path d="M191.715 90.5712C203.334 88.9982 208.292 95.4416 202.779 104.92" stroke="white" stroke-width="0.5" stroke-miterlimit="10"/>
<path d="M165.079 196.832C159.558 206.313 149.739 205.273 143.182 194.501" stroke="white" stroke-width="0.5" stroke-miterlimit="10"/>
<path d="M116.337 192.249C110.816 201.729 106.322 201.184 106.312 191.037" stroke="white" stroke-width="0.5" stroke-miterlimit="10"/>
<path d="M66.1849 167.192C60.6639 176.673 61.6432 178.868 68.3687 172.082C32.5081 145.616 20.4023 107.04 41.3146 85.9028C29.7957 77.4043 24.916 62.7688 30.4266 53.282C2.78048 81.2071 18.7905 132.205 66.1827 167.184L66.1849 167.192Z" stroke="white" stroke-width="0.5" stroke-miterlimit="10"/>
<path d="M62.805 174.186C16.9884 140.367 1.5063 91.0713 28.2369 64.0743" stroke="white" stroke-width="0.5" stroke-miterlimit="10"/>
<path d="M29.7047 128.319C24.1836 137.8 29.1495 144.241 40.7681 142.668" stroke="white" stroke-width="0.5" stroke-miterlimit="10"/>
<path d="M16.8758 87.4596C11.3548 96.9404 17.719 107.845 31.0594 111.754" stroke="white" stroke-width="0.5" stroke-miterlimit="10"/>
<path d="M28.2343 64.0652C54.9567 37.0704 113.769 42.588 159.586 76.4065" stroke="white" stroke-width="0.5" stroke-miterlimit="10"/>
<path d="M67.4039 36.4033C61.8829 45.8841 62.7292 62.3632 69.2838 73.1274" stroke="white" stroke-width="0.5" stroke-miterlimit="10"/>
<path d="M116.153 40.9848C110.632 50.4657 106.159 66.4403 106.171 76.5957" stroke="white" stroke-width="0.5" stroke-miterlimit="10"/>
<path d="M159.585 76.4063C205.402 110.225 220.884 159.521 194.153 186.518" stroke="white" stroke-width="0.5" stroke-miterlimit="10"/>
<path d="M202.779 104.92C197.258 114.401 183.319 123.399 171.709 124.97" stroke="white" stroke-width="0.5" stroke-miterlimit="10"/>
<path d="M215.609 145.784C210.088 155.265 194.751 159.8 181.408 155.882" stroke="white" stroke-width="0.5" stroke-miterlimit="10"/>
<path d="M71.6189 122.659C66.1595 132.044 52.361 140.942 40.8696 142.498" stroke="white" stroke-width="0.5" stroke-miterlimit="10"/>
<path d="M74.1553 73.2901C89.3163 57.9672 122.691 61.1032 148.697 80.2953" stroke="white" stroke-width="0.5" stroke-miterlimit="10"/>
</svg>