<svg width="158" height="162" viewBox="0 0 158 162" fill="none" xmlns="http://www.w3.org/2000/svg">
<path d="M-2.30164 13.5328C14.3007 12.1378 29.6246 5.91205 46.349 4.44589C58.1774 3.41192 69.6611 0.583535 81.5692 0.206053C113.549 -0.811508 145.735 0.18417 177.73 0.206053" stroke="white" stroke-width="0.5" stroke-miterlimit="10"/>
<path d="M-2.32251 16.1679C14.1154 14.5376 29.5932 9.25837 46.1053 7.70467C58.1725 6.56676 69.6933 3.2296 81.8613 2.8357C113.644 1.80173 145.921 2.93418 177.736 3.18036" stroke="white" stroke-width="0.5" stroke-miterlimit="10"/>
<path d="M-2.38654 18.2799C13.7543 16.7043 29.5875 12.924 45.7177 11.1242C58.2464 9.72365 69.9157 5.34158 82.6088 4.93127C96.368 4.48267 109.862 7.01016 123.584 7.15787C141.645 7.35481 159.68 6.02542 177.741 6.15672" stroke="white" stroke-width="0.5" stroke-miterlimit="10"/>
<path d="M-2.48193 19.9602C13.2929 18.6637 29.5451 16.8036 45.2086 14.6755C58.3843 12.8866 70.2818 7.00002 83.7174 6.58424C97.5138 6.15752 110.626 10.3809 124.316 10.9554C142.138 11.7049 159.913 9.12814 177.73 9.12814" stroke="white" stroke-width="0.5" stroke-miterlimit="10"/>
<path d="M-2.59869 21.296C12.9375 20.4371 29.2109 20.4809 44.6197 18.3199C58.6177 16.3559 70.7485 8.2592 85.1336 7.88172C99.0308 7.52065 111.602 13.7245 125.266 14.9062C142.738 16.4161 160.274 12.313 177.735 12.0997" stroke="white" stroke-width="0.5" stroke-miterlimit="10"/>
<path d="M-2.73682 22.3853C12.497 22.0899 28.8871 24.7268 43.9565 22.0461C58.7766 19.4147 71.3795 9.19529 86.7512 8.9327C100.823 8.69198 112.716 17.0677 126.353 18.9825C143.348 21.3732 160.746 15.5632 177.73 15.0764" stroke="white" stroke-width="0.5" stroke-miterlimit="10"/>
<path d="M-2.88501 23.3138C12.1791 23.6475 28.2987 29.0471 43.2567 25.8139C58.8512 22.4494 72.1755 9.87759 88.5126 9.81741C102.818 9.7627 113.941 20.3924 127.541 23.1277C143.953 26.4266 161.319 18.8387 177.73 18.0454" stroke="white" stroke-width="0.5" stroke-miterlimit="10"/>
<path d="M-3.03296 24.1843C12.0417 25.1909 27.4081 33.4299 42.5412 29.6113C58.9101 25.4809 73.03 10.7208 90.3325 10.6497C104.834 10.5895 115.321 23.7521 128.778 27.3136C144.563 31.4987 161.94 22.1218 177.736 21.0277" stroke="white" stroke-width="0.5" stroke-miterlimit="10"/>
<path d="M-3.18756 25.0753C12.0463 26.7767 26.2511 37.8276 41.8243 33.3908C58.8669 28.5328 73.9575 11.4695 92.1193 11.4969C106.844 11.5187 116.689 27.1104 129.981 31.4761C145.178 36.4654 162.523 25.3707 177.73 23.9975" stroke="white" stroke-width="0.5" stroke-miterlimit="10"/>
<path d="M-3.32538 26.094C12.1524 28.4629 24.9569 42.2109 41.1508 37.1395C58.7768 31.6195 74.8911 12.3241 93.8114 12.4719C108.764 12.5867 117.999 30.5035 131.122 35.5858C145.836 41.2863 163.027 28.5942 177.735 26.9748" stroke="white" stroke-width="0.5" stroke-miterlimit="10"/>
<path d="M-3.45227 27.3187C12.312 30.2729 23.6312 46.4827 40.5306 40.8205C58.6711 34.7425 75.7349 13.3901 95.3182 13.6637C110.52 13.877 119.14 33.9 132.135 39.595C146.504 45.8919 163.414 31.7609 177.736 29.9501" stroke="white" stroke-width="0.5" stroke-miterlimit="10"/>
<path d="M-3.55829 28.8518C12.4924 32.2327 22.3901 50.5761 39.9843 44.4106C48.922 41.2813 57.5573 34.9954 65.5349 30.0006C74.0376 24.6721 85.9403 14.9615 96.5594 15.1639C112.064 15.4594 120.004 37.2822 132.963 43.4587C147.141 50.2151 163.669 34.8641 177.736 32.922" stroke="white" stroke-width="0.5" stroke-miterlimit="10"/>
<path d="M-3.63318 30.7769C12.7198 34.3657 21.318 54.3996 39.5487 47.8839C48.7304 44.6015 57.6415 37.9053 65.7889 32.6643C74.3711 27.1388 86.6187 16.8319 97.4606 17.0726C113.331 17.4228 120.497 40.6297 133.551 47.1399C147.708 54.1972 163.774 37.8834 177.735 35.8975" stroke="white" stroke-width="0.5" stroke-miterlimit="10"/>
<path d="M-3.67566 33.194C13.0009 36.6953 20.4693 57.8835 39.241 51.2092C48.5765 47.8884 57.7051 40.8476 65.9267 35.4644C74.6045 29.7857 86.8997 19.2272 97.9326 19.4733C114.27 19.8454 120.518 43.9167 133.842 50.58C148.159 57.7413 163.711 40.7929 177.73 38.8672" stroke="white" stroke-width="0.5" stroke-miterlimit="10"/>
<path d="M-3.72845 36.1321C12.8845 39.6388 20.4589 60.7833 39.1246 54.0598C48.4972 50.6843 57.663 43.7528 65.9801 38.397C74.6843 32.7949 87.0645 22.2747 98.0549 22.4224C114.445 22.6467 120.502 47.0025 133.821 53.6385C148.297 60.8544 163.6 43.6927 177.741 41.8381" stroke="white" stroke-width="0.5" stroke-miterlimit="10"/>
<path d="M-4.06726 39.2833C12.2804 42.8722 20.9105 62.7638 39.0616 56.188C48.4714 52.7797 57.6159 46.3625 66.1398 41.209C74.9078 35.9079 87.6221 25.6174 98.4321 25.6995C114.451 25.8253 120.699 50.0279 133.636 56.6201C148.106 63.9947 163.563 46.6689 177.736 44.8197" stroke="white" stroke-width="0.5" stroke-miterlimit="10"/>
<path d="M-4.68347 42.5818C11.5634 45.9846 21.249 64.0271 38.9758 57.8506C48.4492 54.5463 57.6574 48.7145 66.4094 43.8729C75.3311 38.9382 88.4061 29.0963 99.0942 29.2386C114.742 29.441 120.783 53.1403 133.349 59.6943C147.755 67.2056 163.562 49.6554 177.73 47.7954" stroke="white" stroke-width="0.5" stroke-miterlimit="10"/>
<path d="M-5.52112 45.9963C10.7046 48.9998 21.5359 64.7173 38.8808 59.1426C48.4444 56.068 57.7746 50.8653 66.7706 46.4395C75.931 41.937 89.3508 32.7462 99.9752 33.0252C115.267 33.4355 120.773 56.3251 132.994 62.8408C147.3 70.467 163.61 52.6378 177.73 50.7668" stroke="white" stroke-width="0.5" stroke-miterlimit="10"/>
<path d="M-6.53424 49.5035C9.69147 51.9435 21.7799 64.9967 38.7588 60.1605C48.4337 57.4087 57.9177 52.8844 67.1737 48.9564C76.6258 44.9464 90.3692 36.5597 100.983 37.0575C115.962 37.7578 120.625 59.6463 132.57 66.0635C146.822 73.7225 163.61 55.6417 177.736 53.7379" stroke="white" stroke-width="0.5" stroke-miterlimit="10"/>
<path d="M-7.65833 53.0695C8.55147 54.8311 21.9871 65.0122 38.6266 60.9966C48.4289 58.6333 58.0879 54.8256 67.5878 51.472C77.3742 48.02 91.388 40.5524 102.034 41.3128C117.087 42.3851 119.893 63.5186 132.098 69.3505C147.067 76.5062 162.99 58.7481 177.741 56.7185" stroke="white" stroke-width="0.5" stroke-miterlimit="10"/>
<path d="M-8.85211 56.6752C6.44004 57.6272 20.8729 64.7227 36.2977 62.1733C49.1234 60.0562 61.6997 55.7288 74.2231 52.2658C82.6462 49.9407 93.8223 45.1429 102.712 46.2042C118.121 48.0424 119.569 67.9997 132.846 73.3392C147.289 79.1546 163.525 61.6208 177.736 59.6951" stroke="white" stroke-width="0.5" stroke-miterlimit="10"/>
<path d="M-10.0616 60.28C5.39501 60.5699 20.6235 64.755 36.0854 62.8184C49.0437 61.1936 61.8588 57.9549 74.6474 55.3289C83.3463 53.5455 94.5807 49.5573 103.55 50.7882C118.392 52.8233 119.479 71.4512 132.257 76.6539C146.647 82.5131 163.536 64.6292 177.73 62.6652" stroke="white" stroke-width="0.5" stroke-miterlimit="10"/>
<path d="M-11.223 63.8695C4.46696 63.5357 20.2047 64.9034 35.8681 63.5631C48.9484 62.4471 61.9598 60.3025 74.9658 58.5355C83.9459 57.3155 95.1273 54.1698 104.213 55.5484C118.477 57.7094 119.378 74.9806 131.684 79.9863C146.069 85.84 163.526 67.6443 177.736 65.642" stroke="white" stroke-width="0.5" stroke-miterlimit="10"/>
<path d="M-12.2949 67.408C3.69209 66.5218 19.6473 65.2471 35.6396 64.4976C48.8154 63.8794 61.9699 62.8181 75.1297 61.9099C84.3644 61.2699 95.3867 58.9667 104.611 60.4547C118.312 62.6594 119.256 78.5739 131.121 83.3115C145.597 89.0996 163.446 70.6577 177.74 68.6171" stroke="white" stroke-width="0.5" stroke-miterlimit="10"/>
<path d="M-13.2228 70.8667C3.0719 69.5537 19.0218 65.8938 35.4013 65.7187C48.6302 65.582 61.859 65.5656 75.0878 65.489C84.54 65.4343 95.297 63.9572 104.67 65.4944C117.845 67.6609 119.108 82.2186 130.592 86.617C145.295 92.2465 163.25 73.6842 177.736 71.5889" stroke="white" stroke-width="0.5" stroke-miterlimit="10"/>
<path d="M-13.95 74.2253C2.62054 72.6607 18.4166 66.9601 35.1569 67.3322C57.5779 67.8355 82.1632 67.1243 104.308 70.6693C116.996 72.7044 118.916 85.9327 130.114 89.8935C145.225 95.2439 162.915 76.7145 177.73 74.559" stroke="white" stroke-width="0.5" stroke-miterlimit="10"/>
<path d="M-14.4215 77.4481C1.64507 75.9601 16.7091 68.8043 32.9667 69.3186C56.2046 70.0516 80.7633 72.6831 103.794 75.8835C116.185 77.6068 119.431 90.6709 130.92 93.4227C146.568 97.1756 162.465 79.6966 177.741 77.5356" stroke="white" stroke-width="0.5" stroke-miterlimit="10"/>
<path d="M-14.5918 80.5102C1.60739 79.2902 16.3744 71.095 32.7805 71.9594C55.9229 73.1739 79.2351 78.6228 102.266 81.3144C114.461 82.7423 119.187 94.3457 130.66 96.545C146.97 99.6688 161.891 82.7368 177.73 80.5102" stroke="white" stroke-width="0.5" stroke-miterlimit="10"/>
<path d="M-14.4053 83.4931C1.67716 82.016 16.9163 74.5484 33.1897 75.4019C55.7222 76.5781 78.7479 81.0094 101.132 83.9472C113.31 85.5447 119.299 96.9512 130.905 99.0848C147.003 102.044 162.115 85.8838 177.736 83.4931" stroke="white" stroke-width="0.5" stroke-miterlimit="10"/>
<path d="M-13.8752 86.4736C2.85973 84.9035 19.1067 78.552 36.0113 79.6188C56.9843 80.9427 78.5938 83.3991 99.4077 86.3423C111.528 88.0547 118.657 98.1537 130.162 100.736C146.446 104.385 161.971 88.9355 177.736 86.4627" stroke="white" stroke-width="0.5" stroke-miterlimit="10"/>
<path d="M-13.0737 89.4661C3.7355 88.1148 20.428 83.5358 37.3326 84.1978C57.2342 84.9746 77.9473 85.9703 97.7056 88.5033C110.218 90.1062 118.859 99.7675 130.9 102.175C147.072 105.402 162.02 91.7419 177.731 89.4387" stroke="white" stroke-width="0.5" stroke-miterlimit="10"/>
<path d="M-12.0453 92.4599C23.7583 90.4247 59.9917 86.7976 95.859 90.5506C108.939 91.9183 119.113 101.016 131.832 103.232C147.782 106.011 162.162 94.4075 177.735 92.4106" stroke="white" stroke-width="0.5" stroke-miterlimit="10"/>
<path d="M-10.8573 95.4569C6.39213 95.0028 23.6522 95.167 40.8963 94.4777C58.2889 93.7829 76.5409 91.3046 93.9017 92.5684C107.645 93.5695 119.468 101.568 132.893 104.024C148.228 106.825 162.65 96.945 177.735 95.3858" stroke="white" stroke-width="0.5" stroke-miterlimit="10"/>
<path d="M-9.56879 98.4549C7.8928 98.6026 25.5241 101.584 42.9539 99.9812C59.0417 98.4986 75.7501 94.0837 91.9068 94.6472C106.366 95.1505 119.85 102.328 134.049 104.648C148.922 107.077 163.01 99.4341 177.735 98.3564" stroke="white" stroke-width="0.5" stroke-miterlimit="10"/>
<path d="M-8.23138 101.459C9.28857 102.23 27.6201 108.21 45.087 105.589C59.9336 103.363 74.881 96.9784 89.9292 96.869C105.11 96.7596 120.248 103.149 135.243 105.217C149.607 107.203 163.43 101.913 177.736 101.333" stroke="white" stroke-width="0.5" stroke-miterlimit="10"/>
<path d="M-6.90564 104.457C10.9485 105.88 30.9933 115.197 48.7201 110.825C61.5246 107.669 74.6208 99.3094 87.8549 98.9374C103.115 98.5052 119.5 103.735 134.676 105.623C149.151 107.423 163.26 104.425 177.735 104.315" stroke="white" stroke-width="0.5" stroke-miterlimit="10"/>
<path d="M-5.65381 107.455C12.2693 109.435 32.8232 121.159 50.6455 116.246C62.7127 112.92 73.3159 102.525 86.0249 101.678C101.943 100.611 119.792 104.987 135.742 106.437C149.729 107.706 163.716 106.935 177.735 107.28" stroke="white" stroke-width="0.5" stroke-miterlimit="10"/>
<path d="M-4.53479 110.453C12.948 112.816 35.0721 127.385 52.4011 121.493C63.6938 117.653 72.1647 106.098 84.4176 104.846C100.946 103.161 120.041 106.569 136.723 107.526C150.402 108.314 164.05 109.545 177.73 110.256" stroke="white" stroke-width="0.5" stroke-miterlimit="10"/>
<path d="M-3.60657 113.445C13.4413 116.032 37.0293 133.057 53.9075 126.46C64.6539 122.258 71.072 110.075 83.1074 108.532C100.251 106.333 120.195 108.57 137.577 108.992C151.177 109.32 164.215 112.274 177.73 113.237" stroke="white" stroke-width="0.5" stroke-miterlimit="10"/>
<path d="M-2.92175 116.433C8.43996 118.233 18.1202 122.527 28.7605 126.822C36.8442 130.088 46.4343 134.656 55.0909 131.051C65.5296 126.702 70.1655 114.496 82.1638 112.817C99.9754 110.317 120.195 111.11 138.272 110.929C151.994 110.793 164.236 115.142 177.736 116.209" stroke="white" stroke-width="0.5" stroke-miterlimit="10"/>
<path d="M-2.5459 119.413C9.02798 121.186 18.6181 125.781 29.3433 130.377C37.1777 133.73 47.2611 138.648 55.8646 135.169C66.2291 130.978 69.5814 119.408 81.6485 117.788C100.171 115.31 120.025 114.298 138.744 113.439C152.683 112.805 164.151 118.188 177.735 119.173" stroke="white" stroke-width="0.5" stroke-miterlimit="10"/>
<path d="M-2.53473 122.384C9.07627 124.118 18.6398 128.769 29.3809 133.402C37.1676 136.761 47.3783 141.674 55.9977 138.424C66.3622 134.518 69.5553 123.675 81.5482 122.149C100.346 119.758 119.802 117.685 138.733 116.388C152.827 115.42 164.04 121.224 177.736 122.149" stroke="white" stroke-width="0.5" stroke-miterlimit="10"/>
<path d="M-2.88501 125.355C8.5934 127.122 18.2418 131.569 28.9299 136.012C36.8067 139.283 46.8424 144.01 55.483 140.853C65.7733 137.1 69.6188 126.75 81.3412 125.125C99.8478 122.554 118.922 120.365 137.561 118.79C152.042 117.564 163.647 123.856 177.73 125.125" stroke="white" stroke-width="0.5" stroke-miterlimit="10"/>
<path d="M-3.54755 128.314C13.8292 130.918 37.0777 148.867 54.5818 142.904C64.8349 139.414 69.5345 129.829 80.9651 128.101C99.0102 125.376 117.342 122.756 135.482 120.72C150.578 119.03 163.043 126.306 177.731 128.101" stroke="white" stroke-width="0.5" stroke-miterlimit="10"/>
<path d="M-4.46576 131.275C13.155 133.726 35.6026 150.105 53.3506 144.645C63.5878 141.5 69.3217 132.911 80.4394 131.078C97.8586 128.211 115.272 124.962 132.734 122.358C148.445 120.011 162.433 128.676 177.735 131.078" stroke="white" stroke-width="0.5" stroke-miterlimit="10"/>
<path d="M-5.57391 134.223C12.3439 136.428 33.8261 150.975 51.8818 146.144C62.0341 143.425 69.1896 136.242 79.8087 134.054C96.3792 130.635 112.95 127.084 129.563 123.867C145.725 120.738 161.95 131.061 177.736 134.054" stroke="white" stroke-width="0.5" stroke-miterlimit="10"/>
<path d="M-6.81494 137.178C11.3999 139.049 31.9008 151.604 50.2376 147.479C60.3846 145.198 68.7388 139.197 79.1033 137.025C94.9047 133.715 110.515 129.223 126.21 125.421C142.585 121.45 161.653 133.54 177.736 137.025" stroke="white" stroke-width="0.5" stroke-miterlimit="10"/>
<path d="M-8.13599 140.125C10.0311 141.548 28.8718 151.494 47.1556 148.922C57.7694 147.429 67.5398 141.767 78.1855 139.704C93.8648 136.668 108.823 129.955 124.46 126.749C140.85 123.39 161.659 136.214 177.736 140" stroke="white" stroke-width="0.5" stroke-miterlimit="10"/>
<path d="M-9.47284 143.074C8.73136 144.081 27.0735 152.068 45.3678 150.093C56.0294 148.939 66.7864 144.699 77.3578 142.615C92.3635 139.655 106.521 132.412 121.41 128.889C130.411 126.755 139.121 130.886 147.698 133.812C157.675 137.215 167.509 140.454 177.741 142.981" stroke="white" stroke-width="0.5" stroke-miterlimit="10"/>
<path d="M-10.7722 146.023C7.3843 146.63 25.4135 152.741 43.623 151.313C54.4118 150.47 65.9327 147.604 76.5571 145.547C90.9369 142.762 104.495 133.823 118.917 131.613C137.158 128.817 159.781 141.487 177.73 145.952" stroke="white" stroke-width="0.5" stroke-miterlimit="10"/>
<path d="M-11.9707 148.972C6.07436 149.223 23.9338 153.605 42.0106 152.659C53.0064 152.085 65.0258 150.454 75.8518 148.501C89.9452 145.963 103.158 137.292 117.262 135.103C135.848 132.22 159.388 144.524 177.731 148.922" stroke="white" stroke-width="0.5" stroke-miterlimit="10"/>
<path d="M-13.011 151.926C16.5761 151.898 45.7389 156.045 75.2677 151.499C89.324 149.332 102.632 141.509 116.683 139.545C135.63 136.903 158.985 147.806 177.73 151.893" stroke="white" stroke-width="0.5" stroke-miterlimit="10"/>
<path d="M-13.8337 154.887C15.5784 154.586 45.7437 158.361 75.0868 154.87C89.753 153.125 104.053 146.073 118.773 144.799C137.55 143.174 159.228 151.561 177.729 154.87" stroke="white" stroke-width="0.5" stroke-miterlimit="10"/>
<path d="M-14.3782 157.851C15.2407 157.539 45.1885 159.711 74.7757 157.851C90.2906 156.872 105.689 152.501 121.22 151.822C139.785 151.007 159.283 155.734 177.731 157.851" stroke="white" stroke-width="0.5" stroke-miterlimit="10"/>
<path d="M-14.5918 160.822C49.5154 160.756 113.633 160.209 177.735 160.822" stroke="white" stroke-width="0.5" stroke-miterlimit="10"/>
</svg>