<svg width="235" height="229" viewBox="0 0 235 229" fill="none" xmlns="http://www.w3.org/2000/svg">
<path fill-rule="evenodd" clip-rule="evenodd" d="M63.6186 180.053C93.9525 210.387 144.194 209.371 176.783 176.782C209.372 144.194 210.388 93.952 180.054 63.6182C175.324 58.8889 145.426 81.1199 113.273 113.273C81.1204 145.425 58.8894 175.324 63.6186 180.053ZM97.1547 197.203C123.408 204.507 153.475 197.236 175.356 175.355C197.236 153.475 204.507 123.408 197.204 97.1542C201.435 121.586 192.515 149.633 171.074 171.074C149.634 192.514 121.586 201.435 97.1547 197.203ZM169.647 169.647C147.22 192.073 117.553 200.384 92.7713 194.093C115.874 197.268 143.516 187.215 165.365 165.365C187.215 143.515 197.268 115.873 194.093 92.7708C200.385 117.552 192.074 147.22 169.647 169.647ZM88.4525 191.139C111.631 196.411 140.888 186.988 163.938 163.938C186.988 140.888 196.411 111.631 191.14 88.452C191.721 94.4372 191.284 100.842 189.881 107.439C186.201 124.737 175.868 143.445 159.657 159.656C143.446 175.867 124.738 186.201 107.439 189.881C100.843 191.284 94.4377 191.721 88.4525 191.139ZM107.144 187.834C99.016 189.563 91.2616 189.77 84.2948 188.4C90.2179 188.686 96.7103 187.794 103.481 185.824C119.721 181.1 137.761 170.134 153.948 153.947C170.135 137.761 181.1 119.721 185.825 103.48C187.794 96.7098 188.686 90.2173 188.4 84.2943C189.771 91.2611 189.563 99.0155 187.834 107.144C184.257 123.963 174.171 142.287 158.229 158.229C142.288 174.171 123.963 184.256 107.144 187.834ZM80.4238 185.892C87.0714 186.939 94.7631 186.221 103.029 183.817C118.84 179.217 136.555 168.486 152.521 152.52C168.487 136.554 179.218 118.84 183.817 103.029C186.222 94.7626 186.94 87.0709 185.893 80.4233C185.807 86.1685 184.368 92.6606 181.76 99.5277C175.996 114.703 164.403 132.075 148.239 148.239C132.075 164.403 114.704 175.995 99.5282 181.759C92.6611 184.368 86.1691 185.806 80.4238 185.892ZM98.9085 179.808C90.5204 182.994 82.9826 184.298 76.8074 183.636C82.2117 183.109 88.6046 181.047 95.5806 177.684C109.685 170.887 126.388 158.672 142.53 142.53C158.673 126.387 170.887 109.684 177.685 95.5801C181.047 88.6041 183.11 82.2113 183.636 76.807C184.299 82.9821 182.995 90.5199 179.809 98.908C174.183 113.718 162.801 130.823 146.812 146.812C130.823 162.8 113.718 174.183 98.9085 179.808ZM73.4715 181.661C74.4548 181.699 75.4966 181.668 76.5952 181.567C81.6848 181.099 87.8715 179.141 94.7826 175.81C108.597 169.152 125.093 157.113 141.103 141.103C157.113 125.093 169.152 108.597 175.81 94.7822C179.141 87.871 181.1 81.6844 181.567 76.5948C181.668 75.4962 181.699 74.4544 181.661 73.4711C181.584 73.8372 181.497 74.2085 181.401 74.5846C180.196 79.3154 177.506 85.1278 173.599 91.6354C165.776 104.665 152.944 120.699 136.822 136.821C120.699 152.944 104.665 165.775 91.6359 173.598C85.1282 177.505 79.3159 180.196 74.585 181.401C74.209 181.496 73.8376 181.583 73.4715 181.661ZM74.2055 179.374C72.0467 179.923 70.2377 180.115 68.7645 179.989C79.6122 176.119 104.261 156.537 130.399 130.399C156.538 104.26 176.119 79.6117 179.989 68.7641C180.115 70.2373 179.924 72.0463 179.374 74.205C178.245 78.6374 175.677 84.2346 171.823 90.6535C164.124 103.477 151.425 119.364 135.394 135.394C119.364 151.424 103.478 164.123 90.654 171.823C84.2351 175.677 78.6378 178.245 74.2055 179.374ZM177.339 65.141C178.161 65.0066 178.454 65.1192 178.519 65.1527C178.553 65.2178 178.665 65.5112 178.531 66.3327C178.362 67.3645 177.859 68.8237 176.939 70.7251C175.11 74.5048 171.869 79.5554 167.409 85.554C158.509 97.5232 144.994 112.95 128.972 128.972C112.95 144.994 97.5237 158.508 85.5544 167.408C79.5559 171.868 74.5052 175.109 70.7256 176.938C68.8242 177.859 67.365 178.362 66.3332 178.53C65.5117 178.665 65.2183 178.552 65.1532 178.519C65.1196 178.454 65.0071 178.16 65.1415 177.339C65.3103 176.307 65.8132 174.848 66.7334 172.946C68.5625 169.167 71.8036 164.116 76.2638 158.117C85.1635 146.148 98.6783 130.722 114.7 114.7C130.722 98.6779 146.149 85.163 158.118 76.2633C164.116 71.8031 169.167 68.5621 172.947 66.7329C174.848 65.8127 176.307 65.3098 177.339 65.141Z" fill="url(#paint0_linear_305_3275)"/>
<path fill-rule="evenodd" clip-rule="evenodd" d="M54.9468 171.382C24.6129 141.048 25.6286 90.8064 58.2175 58.2175C90.8064 25.6286 141.048 24.6129 171.382 54.9468C176.111 59.6761 153.88 89.5748 121.727 121.727C89.5748 153.88 59.6761 176.111 54.9468 171.382ZM37.7967 137.846C30.4933 111.592 37.7644 81.525 59.6447 59.6447C81.525 37.7644 111.592 30.4933 137.846 37.7967C113.414 33.5654 85.3669 42.4857 63.9263 63.9263C42.4857 85.3669 33.5654 113.414 37.7967 137.846ZM65.3535 65.3535C42.9265 87.7804 34.6155 117.448 40.9072 142.229C37.732 119.127 47.7855 91.4846 69.635 69.635C91.4846 47.7855 119.127 37.732 142.229 40.9072C117.448 34.6155 87.7804 42.9265 65.3535 65.3535ZM43.8605 146.548C38.5891 123.369 48.0124 94.1121 71.0622 71.0622C94.1121 48.0124 123.369 38.5891 146.548 43.8605C140.563 43.2793 134.158 43.7162 127.561 45.1193C110.263 48.7991 91.5548 59.1328 75.3438 75.3438C59.1328 91.5548 48.7991 110.263 45.1193 127.561C43.7162 134.158 43.2793 140.563 43.8605 146.548ZM47.1662 127.856C45.4371 135.984 45.23 143.739 46.6003 150.706C46.3144 144.783 47.2062 138.29 49.1757 131.52C53.9 115.279 64.8657 97.2394 81.0526 81.0526C97.2394 64.8657 115.279 53.9 131.52 49.1757C138.29 47.2062 144.783 46.3144 150.706 46.6003C143.739 45.23 135.984 45.4372 127.856 47.1662C111.037 50.744 92.7126 60.8294 76.771 76.771C60.8294 92.7126 50.7439 111.037 47.1662 127.856ZM49.1076 154.577C48.061 147.929 48.7786 140.237 51.1832 131.971C55.7826 116.16 66.5139 98.4456 82.4797 82.4797C98.4455 66.5139 116.16 55.7826 131.971 51.1832C140.237 48.7786 147.929 48.061 154.577 49.1077C148.831 49.1937 142.339 50.6322 135.472 53.2406C120.297 59.005 102.925 70.5974 86.7613 86.7613C70.5974 102.925 59.005 120.297 53.2406 135.472C50.6321 142.339 49.1937 148.831 49.1076 154.577ZM55.1917 136.092C52.0055 144.48 50.7018 152.018 51.3642 158.193C51.8907 152.789 53.9534 146.396 57.3156 139.42C64.1134 125.316 76.3276 108.613 92.4701 92.4701C108.613 76.3276 125.316 64.1134 139.42 57.3156C146.396 53.9534 152.789 51.8908 158.193 51.3642C152.018 50.7019 144.48 52.0055 136.092 55.1917C121.282 60.8172 104.177 72.1998 88.1885 88.1885C72.1998 104.177 60.8172 121.282 55.1917 136.092ZM53.3392 161.529C53.3011 160.546 53.3323 159.504 53.4332 158.405C53.9009 153.316 55.8592 147.129 59.1901 140.218C65.8483 126.403 77.8871 109.907 93.8973 93.8973C109.907 77.8871 126.403 65.8483 140.218 59.1901C147.129 55.8592 153.316 53.9009 158.405 53.4333C159.504 53.3323 160.546 53.3011 161.529 53.3392C161.163 53.4167 160.791 53.5036 160.415 53.5993C155.685 54.804 149.872 57.4948 143.365 61.402C130.335 69.2247 114.301 82.0565 98.1788 98.1788C82.0564 114.301 69.2247 130.335 61.402 143.365C57.4948 149.872 54.804 155.685 53.5993 160.415C53.5036 160.792 53.4167 161.163 53.3392 161.529ZM55.6264 160.795C55.0767 162.954 54.8852 164.763 55.0113 166.236C58.8815 155.388 78.4628 130.74 104.601 104.601C130.74 78.4628 155.388 58.8815 166.236 55.0113C164.763 54.8852 162.954 55.0767 160.795 55.6264C156.363 56.7551 150.765 59.3233 144.347 63.1771C131.523 70.8766 115.636 83.5757 99.606 99.606C83.5757 115.636 70.8766 131.523 63.1771 144.347C59.3232 150.765 56.7551 156.363 55.6264 160.795ZM169.859 57.6613C169.993 56.8398 169.881 56.5465 169.847 56.4813C169.782 56.4478 169.489 56.3352 168.667 56.4696C167.635 56.6384 166.176 57.1414 164.275 58.0615C160.495 59.8907 155.445 63.1318 149.446 67.5919C137.477 76.4916 122.05 90.0065 106.028 106.028C90.0065 122.05 76.4916 137.477 67.5919 149.446C63.1318 155.445 59.8907 160.495 58.0615 164.275C57.1413 166.176 56.6384 167.635 56.4696 168.667C56.3352 169.489 56.4478 169.782 56.4813 169.847C56.5465 169.881 56.8398 169.993 57.6613 169.859C58.6932 169.69 60.1523 169.187 62.0537 168.267C65.8334 166.438 70.8841 163.197 76.8826 158.737C88.8519 149.837 104.278 136.322 120.3 120.3C136.322 104.278 149.837 88.8519 158.737 76.8826C163.197 70.8841 166.438 65.8334 168.267 62.0537C169.187 60.1523 169.69 58.6932 169.859 57.6613Z" fill="url(#paint1_linear_305_3275)"/>
<defs>
<linearGradient id="paint0_linear_305_3275" x1="183.611" y1="176.466" x2="51.7557" y2="60.708" gradientUnits="userSpaceOnUse">
<stop stop-color="white"/>
<stop offset="1" stop-color="white" stop-opacity="0"/>
</linearGradient>
<linearGradient id="paint1_linear_305_3275" x1="47.3555" y1="48.8625" x2="180.167" y2="180.167" gradientUnits="userSpaceOnUse">
<stop stop-color="white"/>
<stop offset="1" stop-color="white" stop-opacity="0"/>
</linearGradient>
</defs>
</svg>